<svg width="50" height="50" viewBox="0 0 50 50" fill="none" xmlns="http://www.w3.org/2000/svg">
<path d="M35.1638 22.7801H33.3719C33.1728 22.0235 32.8742 21.3068 32.486 20.6498L33.7602 19.3756C34.0887 19.0471 34.0887 18.5095 33.7602 18.191L31.809 16.2398C31.4805 15.9113 30.943 15.9113 30.6244 16.2398L29.3502 17.514C28.6932 17.1258 27.9765 16.8271 27.2199 16.6281V14.8362C27.2199 14.3683 26.8416 14 26.3837 14H23.6163C23.1484 14 22.7801 14.3783 22.7801 14.8362V16.6281C22.0235 16.8271 21.3068 17.1258 20.6498 17.514L19.3756 16.2398C19.0471 15.9113 18.5195 15.9113 18.1909 16.2398L16.2398 18.191C15.9113 18.5195 15.9113 19.0471 16.2398 19.3756L17.514 20.6498C17.1258 21.3068 16.8271 22.0235 16.6281 22.7801H14.8362C14.3683 22.7801 14 23.1584 14 23.6163V26.3837C14 26.8516 14.3783 27.2199 14.8362 27.2199H16.6281C16.8271 27.9765 17.1258 28.6932 17.514 29.3502L16.2398 30.6244C15.9113 30.9529 15.9113 31.4905 16.2398 31.809L18.1909 33.7602C18.5195 34.0887 19.0471 34.0887 19.3756 33.7602L20.6498 32.486C21.3068 32.8742 22.0235 33.1729 22.7801 33.3719V35.1638C22.7801 35.6317 23.1584 36 23.6163 36H26.3837C26.8516 36 27.2199 35.6217 27.2199 35.1638V33.3719C27.9765 33.1729 28.6932 32.8742 29.3502 32.486L30.6244 33.7602C30.9529 34.0887 31.4805 34.0887 31.809 33.7602L33.7602 31.809C34.0887 31.4805 34.0887 30.9529 33.7602 30.6244L32.486 29.3502C32.8742 28.6932 33.1728 27.9765 33.3719 27.2199H35.1638C35.6317 27.2199 36 26.8416 36 26.3837V23.6163C36 23.1484 35.6217 22.7801 35.1638 22.7801ZM24.99 28.9023C22.8299 28.9023 21.0878 27.1502 21.0878 25C21.0878 22.8498 22.8398 21.0977 24.99 21.0977C27.1403 21.0977 28.8923 22.8498 28.8923 25C28.8923 27.1502 27.1403 28.9023 24.99 28.9023Z" fill="#6A7CD8"/>
<path d="M8 16.4449C11.1322 10.2471 17.5593 6 24.9831 6C35.478 6 44 14.5043 44 25" stroke="#6A7CD8" stroke-width="3" stroke-linecap="round" stroke-linejoin="round"/>
<path d="M40 22L44.0053 26L48 22" stroke="#6A7CD8" stroke-width="3" stroke-linecap="round" stroke-linejoin="round"/>
<path d="M42 33.5551C38.8678 39.7529 32.4407 44 25.0169 44C14.522 44 6 35.4957 6 25" stroke="#6A7CD8" stroke-width="3" stroke-linecap="round" stroke-linejoin="round"/>
<path d="M10 28L5.99474 24L2 28" stroke="#6A7CD8" stroke-width="3" stroke-linecap="round" stroke-linejoin="round"/>
</svg>
