<svg width="50" height="50" viewBox="0 0 50 50" fill="none" xmlns="http://www.w3.org/2000/svg">
<path d="M25.63 29.0101C28.5792 29.0101 30.97 26.6193 30.97 23.6701C30.97 20.7209 28.5792 18.3301 25.63 18.3301C22.6808 18.3301 20.29 20.7209 20.29 23.6701C20.29 26.6193 22.6808 29.0101 25.63 29.0101Z" stroke="#6A7CD8" stroke-width="3" stroke-linecap="round" stroke-linejoin="round"/>
<path d="M11.59 14.6801C14.379 14.6801 16.64 12.4191 16.64 9.63008C16.64 6.84104 14.379 4.58008 11.59 4.58008C8.80097 4.58008 6.54001 6.84104 6.54001 9.63008C6.54001 12.4191 8.80097 14.6801 11.59 14.6801Z" stroke="#6A7CD8" stroke-width="3" stroke-linecap="round" stroke-linejoin="round"/>
<path d="M38.96 41.0799C41.2133 41.0799 43.04 39.2532 43.04 36.9999C43.04 34.7466 41.2133 32.9199 38.96 32.9199C36.7067 32.9199 34.88 34.7466 34.88 36.9999C34.88 39.2532 36.7067 41.0799 38.96 41.0799Z" stroke="#6A7CD8" stroke-width="3" stroke-linecap="round" stroke-linejoin="round"/>
<path d="M25.63 44.9999C27.7949 44.9999 29.55 43.2449 29.55 41.0799C29.55 38.915 27.7949 37.1599 25.63 37.1599C23.465 37.1599 21.71 38.915 21.71 41.0799C21.71 43.2449 23.465 44.9999 25.63 44.9999Z" stroke="#6A7CD8" stroke-width="3" stroke-linecap="round" stroke-linejoin="round"/>
<path d="M40.88 12.84C43.0449 12.84 44.8 11.085 44.8 8.92C44.8 6.75504 43.0449 5 40.88 5C38.715 5 36.96 6.75504 36.96 8.92C36.96 11.085 38.715 12.84 40.88 12.84Z" stroke="#6A7CD8" stroke-width="3" stroke-linecap="round" stroke-linejoin="round"/>
<path d="M9.12001 44.9999C11.285 44.9999 13.04 43.2449 13.04 41.0799C13.04 38.915 11.285 37.1599 9.12001 37.1599C6.95506 37.1599 5.20001 38.915 5.20001 41.0799C5.20001 43.2449 6.95506 44.9999 9.12001 44.9999Z" stroke="#6A7CD8" stroke-width="3" stroke-linecap="round" stroke-linejoin="round"/>
<path d="M29.41 27.4399L35.72 33.7599" stroke="#6A7CD8" stroke-width="3" stroke-linecap="round" stroke-linejoin="round"/>
<path d="M15.8 13.8401L21.86 19.9001" stroke="#6A7CD8" stroke-width="3" stroke-linecap="round" stroke-linejoin="round"/>
<path d="M38.09 11.6699L29.56 20.0599" stroke="#6A7CD8" stroke-width="3" stroke-linecap="round" stroke-linejoin="round"/>
<path d="M21.71 27.79L11.42 37.9" stroke="#6A7CD8" stroke-width="3" stroke-linecap="round" stroke-linejoin="round"/>
<path d="M25.63 29.01V37.15" stroke="#6A7CD8" stroke-width="3" stroke-linecap="round" stroke-linejoin="round"/>
</svg>
