<svg width="50" height="41" viewBox="0 0 50 41" fill="currentColor" xmlns="http://www.w3.org/2000/svg">
<path d="M46.5921 34.092H3.40789C1.52632 34.092 0 35.6184 0 37.5C0 39.3816 1.52632 40.9079 3.40789 40.9079H46.5921C48.4737 40.9079 50 39.3816 50 37.5C50 35.6184 48.4737 34.092 46.5921 34.092Z" />
<path d="M24.9999 7.96091C13.0789 7.96091 3.40784 17.6189 3.40784 29.54V31.8164C3.40784 32.4479 3.92099 32.9479 4.53942 32.9479H45.4473C46.0789 32.9479 46.5789 32.4348 46.5789 31.8164V29.54C46.5789 17.6189 36.9078 7.94775 24.9868 7.94775L24.9999 7.96091Z" />
<path d="M28.4079 0H21.5921C19.7105 0 18.1842 1.52633 18.1842 3.40792C18.1842 5.28951 19.7105 6.81584 21.5921 6.81584V9.09217C21.5921 9.72376 22.1053 10.2238 22.7237 10.2238H27.2632C27.8947 10.2238 28.3947 9.7106 28.3947 9.09217V6.81584C30.2763 6.81584 31.8026 5.28951 31.8026 3.40792C31.8026 1.52633 30.2763 0 28.3947 0H28.4079Z" />
</svg>
