<svg width="30" height="30" viewBox="0 0 30 30" fill="none" xmlns="http://www.w3.org/2000/svg">
<g clip-path="url(#clip0_47_24)">
<path d="M15 0C6.73125 0 0 6.73125 0 15C0 23.2687 6.73125 30 15 30C23.2687 30 30 23.2687 30 15C30 6.73125 23.2687 0 15 0ZM27.5344 11.1C26.9203 10.6734 26.2078 10.275 25.3828 9.91875C24.9094 9.7125 24.3563 9.93281 24.15 10.4062C23.9438 10.8797 24.1641 11.4328 24.6375 11.6391C26.8547 12.6 28.125 13.8234 28.125 15C28.125 16.6219 25.6594 18.3703 21.675 19.3313C21.8531 17.9719 21.9469 16.5187 21.9469 15C21.9469 14.7656 21.9469 14.5359 21.9422 14.3063C21.9328 13.7906 21.5016 13.3781 20.9859 13.3875C20.4703 13.3969 20.0578 13.8281 20.0672 14.3438C20.0672 14.5594 20.0719 14.7797 20.0719 15C20.0719 16.6969 19.9453 18.2812 19.7156 19.7203C18.2766 19.9453 16.6922 20.0766 14.9953 20.0766C13.2984 20.0766 11.7141 19.95 10.275 19.7203C10.05 18.2812 9.91875 16.6969 9.91875 15C9.91875 13.3031 10.0453 11.7188 10.275 10.2797C11.7141 10.0547 13.2984 9.92344 14.9953 9.92344C15.5766 9.92344 16.1672 9.9375 16.7531 9.97031C17.2594 9.99375 17.7094 9.6 17.7422 9.08437C17.7703 8.56875 17.3719 8.12344 16.8562 8.09531C16.2375 8.0625 15.6141 8.04375 14.9953 8.04375C13.4766 8.04375 12.0281 8.1375 10.6641 8.31563C11.625 4.33125 13.3734 1.86563 14.9953 1.86563C16.3594 1.86563 17.7656 3.55312 18.7594 6.38438C18.9281 6.87187 19.4672 7.12969 19.9547 6.95625C20.4422 6.78281 20.7 6.24844 20.5266 5.76094C20.0672 4.44844 19.5094 3.34219 18.8859 2.45156C22.9922 3.73125 26.2453 6.97969 27.525 11.0859L27.5344 11.1ZM15 28.125C13.3781 28.125 11.6297 25.6594 10.6687 21.675C12.0281 21.8531 13.4812 21.9469 15 21.9469C16.5187 21.9469 17.9672 21.8531 19.3313 21.675C18.3703 25.6594 16.6219 28.125 15 28.125ZM8.325 19.3313C4.34063 18.3703 1.875 16.6219 1.875 15C1.875 13.3781 4.34063 11.6297 8.325 10.6687C8.14688 12.0281 8.05313 13.4812 8.05313 15C8.05313 16.5187 8.14688 17.9672 8.325 19.3313ZM11.0719 2.475C10.0172 3.98438 9.18281 6.1125 8.65781 8.65781C6.1125 9.17812 3.98438 10.0125 2.475 11.0719C3.75938 6.98906 6.98906 3.75938 11.0719 2.475ZM2.475 18.9281C3.98438 19.9828 6.1125 20.8172 8.65781 21.3422C9.17812 23.8875 10.0125 26.0156 11.0719 27.525C6.98906 26.2406 3.75938 23.0109 2.475 18.9281ZM18.9281 27.525C19.9828 26.0156 20.8172 23.8875 21.3422 21.3422C23.8875 20.8219 26.0156 19.9875 27.525 18.9281C26.2406 23.0109 23.0109 26.2406 18.9281 27.525Z" fill="#082D53"/>
<path d="M14.9437 16.9734C14.6953 16.9734 14.4562 16.875 14.2828 16.6968L11.4422 13.8562C11.0766 13.4906 11.0766 12.8953 11.4422 12.5296C11.8078 12.164 12.4031 12.164 12.7687 12.5296L14.9484 14.7093L20.2031 9.45464C20.5687 9.08901 21.1641 9.08901 21.5297 9.45464C21.8953 9.82026 21.8953 10.4156 21.5297 10.7812L15.6141 16.6968C15.4359 16.875 15.2016 16.9734 14.9531 16.9734H14.9437Z" fill="#6A7CD8"/>
</g>
<defs>
<clipPath id="clip0_47_24">
<rect width="30" height="30" fill="white"/>
</clipPath>
</defs>
</svg>
