<svg width="30" height="30" viewBox="0 0 30 30" fill="none" xmlns="http://www.w3.org/2000/svg">
<g clip-path="url(#clip0_47_15)">
<path d="M15 30C6.73125 30 0 23.2688 0 15C0 6.73125 6.73125 0 15 0C17.3859 0 19.7625 0.576563 21.8719 1.66406C22.3312 1.90313 22.5141 2.46563 22.275 2.92969C22.0359 3.38906 21.4734 3.57188 21.0094 3.33281C19.1391 2.36719 17.1187 1.87969 14.9953 1.87969C7.75781 1.87969 1.87031 7.76719 1.87031 15.0047C1.87031 22.2422 7.75781 28.1297 14.9953 28.1297C22.2328 28.1297 28.1203 22.2422 28.1203 15.0047C28.1203 12.9047 27.6375 10.8938 26.6906 9.0375C26.4562 8.57813 26.6391 8.01094 27.0984 7.77656C27.5625 7.54219 28.125 7.725 28.3594 8.18437C29.4469 10.3078 29.9953 12.6047 29.9953 15.0047C29.9953 23.2734 23.2641 30.0047 14.9953 30.0047L15 30Z" fill="#082D53"/>
<path d="M15 24.1406C9.96094 24.1406 5.85938 20.0391 5.85938 15C5.85938 9.96094 9.96094 5.85938 15 5.85938C16.2656 5.85938 17.4937 6.1125 18.6469 6.61406C19.1203 6.82031 19.3406 7.37344 19.1344 7.84687C18.9281 8.32031 18.375 8.54063 17.9016 8.33438C16.9875 7.93594 16.0125 7.73438 15.0047 7.73438C10.9969 7.73438 7.73906 10.9922 7.73906 15C7.73906 19.0078 10.9969 22.2656 15.0047 22.2656C19.0125 22.2656 22.2703 19.0078 22.2703 15C22.2703 13.9547 22.0547 12.9469 21.6234 12.0047C21.4078 11.5313 21.6188 10.9781 22.0922 10.7625C22.5656 10.5469 23.1187 10.7578 23.3344 11.2312C23.8734 12.4219 24.1453 13.6875 24.1453 15.0047C24.1453 20.0437 20.0437 24.1453 15.0047 24.1453L15 24.1406Z" fill="#082D53"/>
<path d="M29.7234 3.1313L26.8687 0.276611C26.5172 -0.0749512 25.8937 -0.0749512 25.5422 0.276611L23.4375 2.38599C23.2594 2.56411 23.1609 2.79849 23.1609 3.04692V5.51724L14.3344 14.3438C13.9687 14.7094 13.9687 15.3047 14.3344 15.6704C14.5172 15.8532 14.7562 15.9469 14.9953 15.9469C15.2344 15.9469 15.4734 15.8532 15.6562 15.6704L24.4828 6.8438H26.9531C27.2016 6.8438 27.4406 6.74536 27.6141 6.56724L29.7187 4.45786C30.0844 4.09224 30.0844 3.49692 29.7187 3.1313H29.7234ZM26.5641 4.96411H25.0312V3.4313L26.1984 2.25942L27.7312 3.79224L26.5641 4.96411Z" fill="#6A7CD8"/>
</g>
<defs>
<clipPath id="clip0_47_15">
<rect width="30" height="30" fill="white"/>
</clipPath>
</defs>
</svg>
