<svg width="68" height="50" viewBox="0 0 68 50" fill="none" xmlns="http://www.w3.org/2000/svg">
<path d="M15.2676 30.725C23.6997 30.725 30.5352 23.847 30.5352 15.3625C30.5352 6.87803 23.6997 0 15.2676 0C6.83554 0 0 6.87803 0 15.3625C0 23.847 6.83554 30.725 15.2676 30.725Z" fill="url(#paint0_linear_141_8)"/>
<path d="M4.51914 37.4655C4.15451 37.4655 3.7802 37.3941 3.39782 37.2512C3.01383 37.1084 2.68954 36.9152 2.42817 36.6716C2.16519 36.4281 2.0345 36.1424 2.0345 35.8177C2.0345 35.756 2.04418 35.6554 2.06515 35.5125L7.91696 16.3203C8.05894 15.8739 8.37678 15.5378 8.87209 15.3138C9.36741 15.0898 9.89822 14.9778 10.4645 14.9778C11.0308 14.9778 11.5858 15.0898 12.0715 15.3138C12.5571 15.5378 12.8701 15.8739 13.0121 16.3203L18.8655 35.5125C18.9058 35.6554 18.9268 35.756 18.9268 35.8177C18.9268 36.1229 18.7897 36.4022 18.517 36.657C18.2443 36.9119 17.9152 37.11 17.5312 37.2528C17.1472 37.3957 16.7729 37.4671 16.4099 37.4671C16.0856 37.4671 15.8081 37.4119 15.5758 37.2999C15.3434 37.1879 15.1869 36.9801 15.1063 36.6749L13.9543 32.6163H6.97957L5.85826 36.6749C5.77759 36.9801 5.61625 37.1895 5.37263 37.2999C5.13062 37.4119 4.84666 37.4671 4.52398 37.4671L4.51914 37.4655ZM7.82338 29.501H13.0992L10.4613 20.1338L7.82338 29.501Z" fill="#082D53"/>
<path d="M24.1687 37.4655C23.6831 37.4655 23.233 37.3584 22.8199 37.1457C22.4053 36.9314 22.1988 36.6229 22.1988 36.2155V16.382C22.1988 15.9551 22.4053 15.645 22.8199 15.4518C23.2346 15.2586 23.6847 15.1612 24.1687 15.1612C24.6528 15.1612 25.1287 15.2586 25.5337 15.4518C25.9386 15.645 26.1403 15.9551 26.1403 16.382V36.2155C26.1403 36.6229 25.9386 36.933 25.5337 37.1457C25.1287 37.36 24.6737 37.4655 24.1687 37.4655Z" fill="#082D53"/>
<path d="M32.7504 37.4655C32.2245 37.4655 31.805 37.3438 31.492 37.0986C31.179 36.8551 31.0225 36.5694 31.0225 36.2447V16.3804C31.0225 16.0557 31.179 15.77 31.492 15.5265C31.805 15.283 32.2245 15.1596 32.7504 15.1596H38.1182C39.4719 15.1596 40.6851 15.3885 41.7564 15.8463C42.8277 16.3041 43.6812 17.0476 44.3185 18.0736C44.9558 19.1013 45.2736 20.4585 45.2736 22.1468V30.4766C45.2736 32.165 44.9558 33.5238 44.3185 34.5498C43.6812 35.5775 42.8277 36.3194 41.7564 36.7772C40.6851 37.235 39.4719 37.4639 38.1182 37.4639H32.7504V37.4655ZM34.964 33.9865H38.1182C39.1282 33.9865 39.9172 33.6959 40.4835 33.1163C41.0498 32.5368 41.3321 31.6569 41.3321 30.4766V22.1468C41.3321 20.9666 41.0481 20.0867 40.4835 19.5071C39.9172 18.9276 39.1395 18.637 38.1489 18.637H34.964V33.9849V33.9865Z" fill="#082D53"/>
<path d="M50.7931 37.4655C50.4284 37.4655 50.0541 37.3941 49.6718 37.2512C49.2878 37.1084 48.9635 36.9152 48.7021 36.6716C48.4391 36.4281 48.3084 36.1424 48.3084 35.8177C48.3084 35.756 48.3181 35.6554 48.3391 35.5125L54.1909 16.3203C54.3329 15.8739 54.6507 15.5378 55.146 15.3138C55.6413 15.0898 56.1722 14.9778 56.7385 14.9778C57.3048 14.9778 57.8598 15.0898 58.3454 15.3138C58.831 15.5378 59.144 15.8739 59.286 16.3203L65.1394 35.5125C65.1798 35.6554 65.2007 35.756 65.2007 35.8177C65.2007 36.1229 65.0636 36.4022 64.7909 36.657C64.5183 36.9119 64.1891 37.11 63.8052 37.2528C63.4212 37.3957 63.0469 37.4671 62.6838 37.4671C62.3595 37.4671 62.082 37.4119 61.8497 37.2999C61.6174 37.1879 61.4609 36.9801 61.3802 36.6749L60.2282 32.6163H53.2535L52.1322 36.6749C52.0515 36.9801 51.8902 37.1895 51.6466 37.2999C51.4046 37.4119 51.1206 37.4671 50.7979 37.4671L50.7931 37.4655ZM54.0989 29.501H59.3748L56.7368 20.1338L54.0989 29.501Z" fill="#082D53"/>
<path d="M11.4003 44.4365C11.4003 45.2531 11.2712 46.0031 11.0147 46.6866C10.7582 47.3684 10.3951 47.9561 9.92565 48.448C9.45615 48.9399 8.89307 49.323 8.23481 49.5941C7.57654 49.8653 6.84889 50.0016 6.05187 50.0016C5.25485 50.0016 4.52882 49.8653 3.87378 49.5941C3.21874 49.323 2.65567 48.9415 2.18617 48.448C1.71667 47.9561 1.35365 47.3684 1.09712 46.6866C0.840589 46.0047 0.711517 45.2547 0.711517 44.4365C0.711517 43.6183 0.840589 42.8699 1.09712 42.1881C1.35365 41.5062 1.71667 40.9169 2.18617 40.4218C2.65567 39.9266 3.21713 39.5419 3.87378 39.2691C4.52882 38.9948 5.25485 38.8584 6.05187 38.8584C6.84889 38.8584 7.57654 38.9948 8.23481 39.2691C8.89307 39.5435 9.45615 39.9282 9.92565 40.4218C10.3951 40.9169 10.7582 41.5046 11.0147 42.1881C11.2712 42.8699 11.4003 43.6199 11.4003 44.4365ZM9.89499 44.4365C9.89499 43.766 9.80464 43.1654 9.62233 42.6329C9.44001 42.1004 9.18349 41.6491 8.85112 41.2822C8.51876 40.9137 8.11541 40.6312 7.64107 40.4331C7.16673 40.2351 6.63754 40.136 6.05187 40.136C5.46621 40.136 4.94508 40.2351 4.47074 40.4331C3.9964 40.6312 3.59144 40.9137 3.25585 41.2822C2.92026 41.6507 2.66212 42.1004 2.4798 42.6329C2.29749 43.1654 2.20714 43.7677 2.20714 44.4365C2.20714 45.1054 2.29749 45.706 2.4798 46.2369C2.66212 46.7678 2.92026 47.2158 3.25585 47.5843C3.59144 47.9529 3.9964 48.2337 4.47074 48.4285C4.94508 48.6233 5.47105 48.7224 6.05187 48.7224C6.6327 48.7224 7.16673 48.625 7.64107 48.4285C8.11541 48.2337 8.51876 47.9512 8.85112 47.5843C9.18349 47.2158 9.44163 46.7678 9.62233 46.2369C9.80464 45.706 9.89499 45.107 9.89499 44.4365Z" fill="#082D53"/>
<path d="M21.0533 49.8864H19.7529C19.485 49.8864 19.2882 49.7825 19.1624 49.5747L16.3486 45.6768C16.2631 45.5551 16.1711 45.4674 16.0727 45.4138C15.9743 45.3602 15.821 45.3343 15.6145 45.3343H14.5029V49.8864H13.0427V38.9785H16.1066C16.7923 38.9785 17.3844 39.0483 17.8846 39.188C18.3831 39.3276 18.7961 39.5289 19.122 39.7935C19.4479 40.0581 19.6883 40.3763 19.8448 40.7481C20.0013 41.1215 20.0788 41.5387 20.0788 41.9997C20.0788 42.3861 20.0175 42.7449 19.8965 43.0809C19.7755 43.4154 19.5996 43.7157 19.3705 43.9836C19.1414 44.2498 18.8607 44.4771 18.5315 44.6654C18.2008 44.8537 17.8265 44.995 17.4086 45.0924C17.5958 45.1995 17.7571 45.3537 17.8926 45.5567L21.0549 49.888L21.0533 49.8864ZM16.0453 44.2612C16.4696 44.2612 16.8439 44.2092 17.1682 44.1053C17.4941 44.0014 17.7652 43.8537 17.9846 43.6638C18.204 43.4738 18.3686 43.2465 18.4799 42.9819C18.5912 42.7189 18.6461 42.4267 18.6461 42.1069C18.6461 41.4575 18.4347 40.9672 18.0104 40.6377C17.5861 40.3081 16.952 40.1425 16.1034 40.1425H14.4996V44.2612H16.0421H16.0453Z" fill="#082D53"/>
<path d="M31.976 44.4365C31.976 45.2531 31.8469 46.0031 31.5904 46.6866C31.3339 47.3684 30.9708 47.9561 30.5013 48.448C30.0318 48.9399 29.4688 49.323 28.8105 49.5941C28.1522 49.8653 27.4246 50.0016 26.6276 50.0016C25.8306 50.0016 25.1045 49.8653 24.4495 49.5941C23.7944 49.323 23.2314 48.9415 22.7619 48.448C22.2924 47.9561 21.9293 47.3684 21.6728 46.6866C21.4163 46.0047 21.2872 45.2547 21.2872 44.4365C21.2872 43.6183 21.4163 42.8699 21.6728 42.1881C21.9293 41.5062 22.2924 40.9169 22.7619 40.4218C23.2314 39.9266 23.7928 39.5419 24.4495 39.2691C25.1045 38.9948 25.8306 38.8584 26.6276 38.8584C27.4246 38.8584 28.1522 38.9948 28.8105 39.2691C29.4688 39.5435 30.0318 39.9282 30.5013 40.4218C30.9708 40.9169 31.3339 41.5046 31.5904 42.1881C31.8469 42.8699 31.976 43.6199 31.976 44.4365ZM30.4707 44.4365C30.4707 43.766 30.3803 43.1654 30.198 42.6329C30.0157 42.1004 29.7592 41.6491 29.4268 41.2822C29.0945 40.9137 28.6911 40.6312 28.2168 40.4331C27.7424 40.2351 27.2132 40.136 26.6276 40.136C26.0419 40.136 25.5208 40.2351 25.0464 40.4331C24.5721 40.6312 24.1671 40.9137 23.8315 41.2822C23.496 41.6507 23.2378 42.1004 23.0555 42.6329C22.8732 43.1654 22.7828 43.7677 22.7828 44.4365C22.7828 45.1054 22.8732 45.706 23.0555 46.2369C23.2378 46.7678 23.496 47.2158 23.8315 47.5843C24.1671 47.9529 24.5721 48.2337 25.0464 48.4285C25.5208 48.6233 26.0467 48.7224 26.6276 48.7224C27.2084 48.7224 27.7424 48.625 28.2168 48.4285C28.6911 48.2337 29.0945 47.9512 29.4268 47.5843C29.7592 47.2158 30.0173 46.7678 30.198 46.2369C30.3803 45.706 30.4707 45.107 30.4707 44.4365Z" fill="#082D53"/>
<path d="M36.8178 38.9785C37.5035 38.9785 38.1005 39.0581 38.6071 39.2188C39.1137 39.3779 39.5332 39.6052 39.8671 39.9006C40.2011 40.1961 40.448 40.55 40.6125 40.9656C40.7771 41.3812 40.8578 41.8455 40.8578 42.3585C40.8578 42.8715 40.769 43.331 40.5932 43.7514C40.4173 44.1719 40.1576 44.5355 39.8171 44.8391C39.4767 45.1443 39.0556 45.3813 38.5538 45.5502C38.0521 45.7206 37.4729 45.8051 36.8178 45.8051H35.0786V49.8847H33.6184V38.9769H36.8178V38.9785ZM36.8178 44.6346C37.2357 44.6346 37.6052 44.5794 37.9262 44.4674C38.2457 44.3553 38.5167 44.1995 38.7361 43.9998C38.9556 43.8001 39.1201 43.5599 39.2315 43.2806C39.3428 43.0014 39.3976 42.6946 39.3976 42.3601C39.3976 41.6653 39.1847 41.1215 38.7587 40.7318C38.3328 40.3406 37.6858 40.1458 36.8178 40.1458H35.0786V44.6362H36.8178V44.6346Z" fill="#082D53"/>
<path d="M48.9361 48.6834L48.928 49.8864H42.2485V38.9785H48.928V40.1815H43.7151V43.805H47.9358V44.9625H43.7151V48.685H48.9345L48.9361 48.6834Z" fill="#082D53"/>
<path d="M57.7646 39.5256C57.7646 39.6929 57.7146 39.8552 57.6129 40.0127L51.4772 48.6834H57.6726V49.8864H49.5475V49.3084C49.5475 49.2273 49.5621 49.151 49.5895 49.0795C49.6169 49.0081 49.6508 48.9399 49.6911 48.8733L55.8414 40.1799H49.8347V38.9769H57.763V39.5256H57.7646Z" fill="#082D53"/>
<path d="M68 49.8864H66.8658C66.7351 49.8864 66.6286 49.8539 66.5479 49.7873C66.4673 49.7208 66.406 49.638 66.3656 49.5357L65.3524 46.9025H60.488L59.4748 49.5357C59.4441 49.6266 59.3861 49.7078 59.3005 49.7792C59.215 49.8506 59.1085 49.8864 58.9827 49.8864H57.8485L62.1837 38.9785H63.6664L68.0016 49.8864H68ZM64.9442 45.8375L63.2421 41.3991C63.1921 41.2676 63.1388 41.1134 63.084 40.938C63.0291 40.7627 62.9759 40.576 62.9259 40.3779C62.8194 40.7887 62.7113 41.1312 62.5999 41.4056L60.8978 45.8359H64.9442V45.8375Z" fill="#082D53"/>
<defs>
<linearGradient id="paint0_linear_141_8" x1="15.2676" y1="30.725" x2="15.2676" y2="0" gradientUnits="userSpaceOnUse">
<stop stop-color="#D8DCE2"/>
<stop offset="0.35" stop-color="#D3D8E2"/>
<stop offset="0.73" stop-color="#C6CCE3"/>
<stop offset="1" stop-color="#B9C1E5"/>
</linearGradient>
</defs>
</svg>
