<svg width="50" height="48" viewBox="0 0 50 48" fill="currentColor" xmlns="http://www.w3.org/2000/svg">
<g clip-path="url(#clip0_86_141)">
<path d="M41.7667 31.3833H8.23333C3.7 31.3833 0 35.117 0 39.6916C0 44.2663 3.7 48 8.23333 48H41.7667C46.3 48 50 44.2663 50 39.6916C50 35.117 46.3 31.3833 41.7667 31.3833ZM9.8 45.9818C6.33333 45.9818 3.53333 43.1563 3.53333 39.658C3.53333 36.1598 6.33333 33.3342 9.8 33.3342C13.2667 33.3342 16.0667 36.1598 16.0667 39.658C16.0667 43.1563 13.2667 45.9818 9.8 45.9818ZM25 45.9818C21.5333 45.9818 18.7333 43.1563 18.7333 39.658C18.7333 36.1598 21.5333 33.3342 25 33.3342C28.4667 33.3342 31.2667 36.1598 31.2667 39.658C31.2667 43.1563 28.4667 45.9818 25 45.9818ZM40.2 45.9818C36.7333 45.9818 33.9333 43.1563 33.9333 39.658C33.9333 36.1598 36.7333 33.3342 40.2 33.3342C43.6667 33.3342 46.4667 36.1598 46.4667 39.658C46.4667 43.1563 43.6667 45.9818 40.2 45.9818Z" />
<path d="M38.1 0H29.1V12.3111H20.8666V0H11.8666C10.9 0 10.1 0.807288 10.1 1.78276V28.2551C10.1 29.2306 10.9 30.0378 11.8666 30.0378H38.1C39.0666 30.0378 39.8666 29.2306 39.8666 28.2551V1.78276C39.8666 0.807288 39.0666 0 38.1 0Z"/>
</g>
<defs>
<clipPath id="clip0_86_141">
<rect width="50" height="48" />
</clipPath>
</defs>
</svg>
