<svg width="147" height="46" viewBox="0 0 147 46" fill="none" xmlns="http://www.w3.org/2000/svg">
<g clip-path="url(#clip0_143_87)">
<path d="M104.696 31.9869H115.276L114.276 25.6636C111.151 26.6541 107.849 27.6532 104.394 28.6566L104.696 31.9869Z" fill="#1976BA"/>
<path d="M146.971 9.61827C145.765 3.88626 108.355 7.41726 63.4087 17.5107C37.2903 23.3751 14.3793 30.1596 0 35.9428C9.46436 33.191 19.6218 30.42 30.2225 27.7259C83.5766 14.1761 127.903 7.72468 129.233 13.3179C130.167 17.2524 109.569 26.0991 78.6974 35.7187C118.323 26.1098 148.075 14.8763 146.973 9.61827" fill="#DA364E"/>
<path d="M112.982 17.6773L110.325 1.39494H99.1868L95.7926 13.4055C95.4334 14.7035 95.2338 16.1231 95.0343 17.4638H94.755L90.6025 1.39494H79.3444L76.3723 20.064C74.6794 21.663 72.7555 22.6557 70.3652 22.6557C67.0907 22.6557 64.2573 20.0597 64.2573 16.6931C64.2573 13.3265 66.9311 10.7284 70.2056 10.7284C72.4215 10.7284 74.4106 11.8663 76.0657 13.2987L76.2442 2.14213C73.9464 1.34584 71.4175 0.908203 68.9664 0.908203C60.1447 0.908203 53.2366 8.0492 53.2366 16.977C53.2366 17.1158 53.2408 17.2567 53.2429 17.3976L50.6531 1.39494H39.5147L36.1205 13.4076C35.7613 14.7056 35.5618 16.1252 35.3622 17.4638H35.0808L30.9304 1.39494H19.6723L14.8015 31.9913H25.3812L26.6582 18.9261C26.7779 17.7093 26.8578 16.4519 26.9376 15.2329H27.2967C27.3765 16.5309 27.6559 17.7477 27.9731 19.0478L31.8861 31.9913H38.2734L42.6254 18.275C42.9446 17.3015 43.1463 16.2469 43.3437 15.2329H43.5433L45.0198 31.9913H55.5974L53.9654 21.9021C55.9272 28.33 61.6171 33.159 68.5211 33.159C70.6761 33.159 72.3081 32.8559 73.3919 32.5549C74.5324 29.0132 75.9124 24.878 75.9124 24.878L74.9756 31.9891H85.047L86.324 18.9219C86.4437 17.705 86.5235 16.4455 86.6033 15.2308H86.9604C87.0402 16.5287 87.3196 17.7456 87.6409 19.0436L91.3544 30.4457C95.2107 28.8232 98.1702 27.6618 99.7329 26.7225L102.291 18.2729C102.61 17.2994 102.812 16.2427 103.009 15.2308H103.209L104.106 24.6859C105.408 24.1308 108.945 22.5062 111.241 21.078C113.243 19.8356 113.108 18.8728 112.974 17.6751" fill="#1976BA"/>
<path d="M64.7045 42.5008C65.1477 42.2489 65.5195 41.8518 65.5195 41.1388V41.1217C65.5195 40.6884 65.3766 40.3361 65.0952 40.05C64.7402 39.6893 64.1815 39.4907 63.4716 39.4907H60.5898V45.8013H63.543C64.944 45.8013 65.866 45.2249 65.866 44.0699V44.0528C65.866 43.2053 65.4228 42.7805 64.7045 42.5008ZM61.9173 40.7054H63.2657C63.8433 40.7054 64.1626 40.9403 64.1626 41.3544V41.3715C64.1626 41.8412 63.7803 42.0397 63.1775 42.0397H61.9173V40.7054ZM64.5092 43.8991C64.5092 44.3688 64.1458 44.5844 63.543 44.5844H61.9194V43.1946H63.4989C64.2004 43.1946 64.5113 43.4572 64.5113 43.8799V43.8991H64.5092Z" fill="#1976BA"/>
<path d="M70.6359 43.1052C70.6359 44.1064 70.1297 44.6209 69.2959 44.6209C68.462 44.6209 67.9558 44.0893 67.9558 43.0603V39.4888H66.5906V43.0966C66.5906 44.9539 67.6093 45.8997 69.2791 45.8997C70.9489 45.8997 72.0012 44.9625 72.0012 43.0518V39.4888H70.6359V43.1052Z" fill="#1976BA"/>
<path d="M75.5551 42.0228C74.4818 41.7431 74.215 41.6087 74.215 41.1924V41.1753C74.215 40.8679 74.4902 40.6245 75.0132 40.6245C75.5362 40.6245 76.0781 40.8593 76.6284 41.2457L77.3383 40.1997C76.7082 39.6852 75.9374 39.397 75.0321 39.397C73.7635 39.397 72.8582 40.1527 72.8582 41.297V41.3162C72.8582 42.5693 73.6647 42.9216 74.9166 43.2461C75.9542 43.5172 76.1684 43.6965 76.1684 44.0488V44.068C76.1684 44.4373 75.8302 44.6636 75.2715 44.6636C74.5616 44.6636 73.9756 44.3647 73.4169 43.8972L72.6104 44.8792C73.3539 45.5538 74.3033 45.889 75.2442 45.889C76.5843 45.889 77.5232 45.1866 77.5232 43.9335V43.9164C77.5232 42.8148 76.8153 42.3558 75.5551 42.0228Z" fill="#1976BA"/>
<path d="M79.6426 39.4888H78.2773V45.7993H79.6426V39.4888Z" fill="#1976BA"/>
<path d="M85.0194 43.3742L82.1082 39.4888H80.8501V45.7993H82.1964V41.788L85.2042 45.7993H86.3657V39.4888H85.0194V43.3742Z" fill="#1976BA"/>
<path d="M88.9135 43.2397H91.8414V42.0057H88.9135V40.7227H92.2405V39.4888H87.5566V45.7993H92.2846V44.5654H88.9135V43.2397Z" fill="#1976BA"/>
<path d="M95.7482 42.0228C94.6749 41.7431 94.4082 41.6087 94.4082 41.1924V41.1753C94.4082 40.8679 94.6833 40.6245 95.2063 40.6245C95.7293 40.6245 96.2712 40.8593 96.8215 41.2457L97.5293 40.1997C96.9013 39.6852 96.1284 39.397 95.2231 39.397C93.9545 39.397 93.0513 40.1527 93.0513 41.297V41.3162C93.0513 42.5693 93.8579 42.9216 95.1097 43.2461C96.1473 43.5172 96.3615 43.6965 96.3615 44.0488V44.068C96.3615 44.4373 96.0234 44.6636 95.4647 44.6636C94.7547 44.6636 94.1687 44.3647 93.61 43.8972L92.8035 44.8792C93.5491 45.5538 94.4964 45.889 95.4374 45.889C96.7774 45.889 97.7163 45.1866 97.7163 43.9335V43.9164C97.7163 42.8148 97.0084 42.3558 95.7482 42.0228Z" fill="#1976BA"/>
<path d="M101.132 42.0228C100.058 41.7431 99.7916 41.6087 99.7916 41.1924V41.1753C99.7916 40.8679 100.067 40.6245 100.59 40.6245C101.113 40.6245 101.655 40.8593 102.205 41.2457L102.913 40.1997C102.283 39.6852 101.512 39.397 100.607 39.397C99.3379 39.397 98.4348 40.1527 98.4348 41.297V41.3162C98.4348 42.5693 99.2413 42.9216 100.491 43.2461C101.531 43.5172 101.743 43.6965 101.743 44.0488V44.068C101.743 44.4373 101.407 44.6636 100.846 44.6636C100.136 44.6636 99.5501 44.3647 98.9914 43.8972L98.1848 44.8792C98.9284 45.5538 99.8777 45.889 100.819 45.889C102.159 45.889 103.098 45.1866 103.098 43.9335V43.9164C103.098 42.8148 102.388 42.3558 101.13 42.0228H101.132Z" fill="#1976BA"/>
<path d="M105.551 40.7697H107.439V45.7993H108.804V40.7697H110.695V39.4888H105.551V40.7697Z" fill="#1976BA"/>
<path d="M112.652 43.2397H115.58V42.0057H112.652V40.7227H115.979V39.4888H111.295V45.7993H116.023V44.5654H112.652V43.2397Z" fill="#1976BA"/>
<path d="M118.34 39.4888H116.975V45.7993H121.436V44.5398H118.34V39.4888Z" fill="#1976BA"/>
<path d="M123.385 43.2397H126.313V42.0057H123.385V40.7227H126.714V39.4888H122.031V45.7993H126.756V44.5654H123.385V43.2397Z" fill="#1976BA"/>
<path d="M130.533 44.6292C129.468 44.6292 128.733 43.7262 128.733 42.6439V42.6268C128.733 41.5444 129.487 40.6606 130.533 40.6606C131.154 40.6606 131.642 40.9296 132.121 41.3736L132.99 40.3553C132.415 39.7789 131.713 39.3818 130.541 39.3818C128.634 39.3818 127.304 40.8506 127.304 42.646V42.6652C127.304 44.4777 128.661 45.9101 130.489 45.9101C131.686 45.9101 132.396 45.4789 133.034 44.7851L132.165 43.8927C131.677 44.3432 131.243 44.6314 130.533 44.6314V44.6292Z" fill="#1976BA"/>
<path d="M136.565 39.3818C134.65 39.3818 133.257 40.8506 133.257 42.646V42.6652C133.257 44.4606 134.631 45.9101 136.548 45.9101C138.466 45.9101 139.857 44.4414 139.857 42.646V42.6289C139.857 40.8335 138.483 39.384 136.565 39.384V39.3818ZM138.43 42.6631C138.43 43.7454 137.668 44.6292 136.567 44.6292C135.467 44.6292 134.685 43.7262 134.685 42.6439V42.6268C134.685 41.5444 135.448 40.6606 136.548 40.6606C137.649 40.6606 138.43 41.5615 138.43 42.6439V42.6631Z" fill="#1976BA"/>
<path d="M143.826 42.1573L142.192 39.4888H140.722V45.7993H142.06V41.7069L143.791 44.3754H143.826L145.574 41.6791V45.7993H146.931V39.4888H145.458L143.826 42.1573Z" fill="#1976BA"/>
</g>
<defs>
<clipPath id="clip0_143_87">
<rect width="147" height="45" fill="white" transform="translate(0 0.908203)"/>
</clipPath>
</defs>
</svg>
