<svg width="50" height="50" viewBox="0 0 50 50" fill="currentColor" xmlns="http://www.w3.org/2000/svg">
<path d="M49.1843 3.88487C49.1843 3.88487 49.0791 3.80592 49.0133 3.76645L41.8685 0.1875C41.3685 -0.0625 40.7764 -0.0625 40.2764 0.1875L33.1317 3.75329C33.1317 3.75329 33.0264 3.83224 32.9606 3.87171L41.0659 7.92434L49.1712 3.87171L49.1843 3.88487Z" />
<path d="M33.1316 15.8847L40.1842 19.6479V9.48996L32.1448 5.47681V14.3058C32.1448 14.9768 32.5264 15.5952 33.1316 15.8979V15.8847Z" />
<path d="M41.9604 9.49018V19.6481L49.0131 15.8849C49.6183 15.5823 49.9999 14.9639 49.9999 14.2928V5.46387L41.9604 9.47702V9.49018Z" />
<path d="M44.8684 20.1216L41.0658 22.1479L32.2895 17.4637C31.1184 16.8716 30.3553 15.6479 30.3553 14.2926V12.5032H7.14474C6.51316 12.5032 5.93421 12.8321 5.61842 13.3716L0.25 22.2926C0.0789474 22.569 0 22.8848 0 23.2137C0 26.1742 2.40789 28.569 5.35526 28.569C6.72368 28.569 7.97368 28.0558 8.92105 27.2005C9.86842 28.0558 11.1184 28.569 12.4868 28.569C13.8553 28.569 15.1053 28.0558 16.0526 27.2005C17 28.0558 18.25 28.569 19.6184 28.569C20.9868 28.569 22.2368 28.0558 23.1842 27.2005C24.1316 28.0558 25.3816 28.569 26.75 28.569C28.1184 28.569 29.3684 28.0558 30.3158 27.2005C31.2632 28.0558 32.5132 28.569 33.8816 28.569C35.25 28.569 36.5 28.0558 37.4474 27.2005C38.3947 28.0558 39.6447 28.569 41.0132 28.569C43.9737 28.569 46.3684 26.1611 46.3684 23.2137C46.3684 22.8848 46.2763 22.569 46.1184 22.2926L44.8158 20.1216H44.8684Z" />
<path d="M37.5001 29.3977C36.4212 30.0161 35.1975 30.3582 33.9343 30.3582C32.6712 30.3582 31.4475 30.0293 30.3686 29.3977C29.2896 30.0161 28.0659 30.3582 26.8028 30.3582C25.5396 30.3582 24.3159 30.0293 23.237 29.3977C22.158 30.0161 20.9343 30.3582 19.6712 30.3582C18.408 30.3582 17.1843 30.0293 16.1054 29.3977C15.0265 30.0161 13.8028 30.3582 12.5396 30.3582C11.2765 30.3582 10.0528 30.0293 8.97382 29.3977C7.89488 30.0161 6.67119 30.3582 5.40803 30.3582C4.78961 30.3582 4.19751 30.253 3.61856 30.1082V48.2135C3.61856 49.2003 4.42119 50.003 5.40803 50.003H7.19751V35.7135C7.19751 34.7267 8.00014 33.924 8.98698 33.924H16.1317C17.1186 33.924 17.9212 34.7267 17.9212 35.7135V50.003H41.1317C42.1186 50.003 42.9212 49.2003 42.9212 48.2135V30.1082C42.3422 30.253 41.7501 30.3582 41.1317 30.3582C39.8686 30.3582 38.6449 30.0293 37.5659 29.3977H37.5001ZM39.2896 41.0688C39.2896 42.0556 38.487 42.8582 37.5001 42.8582H25.0001C24.0133 42.8582 23.2107 42.0556 23.2107 41.0688V35.7135C23.2107 34.7267 24.0133 33.924 25.0001 33.924H37.5001C38.487 33.924 39.2896 34.7267 39.2896 35.7135V41.0688Z"/>
</svg>
