<svg width="50" height="50" viewBox="0 0 50 50" fill="currentColor" xmlns="http://www.w3.org/2000/svg">
<g clip-path="url(#clip0_86_145)">
<path d="M44.3667 29.4333V0H36.9V26.9333C38.2667 28.5 39.3 30.3667 39.9667 32.3333H50.0334V29.4H44.4L44.3667 29.4333Z" />
<path d="M24.9999 24.4333C17.9666 24.4333 12.2333 30.1667 12.2333 37.2C12.2333 44.2333 17.9666 49.9667 24.9999 49.9667C32.0333 49.9667 37.7666 44.2333 37.7666 37.2C37.7666 30.1667 32.0333 24.4333 24.9999 24.4333ZM24.9999 35.7334C27.7333 35.7334 29.9333 37.9667 29.9333 40.6667C29.9333 42.8667 28.4666 44.7667 26.4666 45.4V47.6333H23.5333V45.4C21.5333 44.7667 20.0666 42.9 20.0666 40.6667H22.9999C22.9999 41.7667 23.8999 42.6667 24.9999 42.6667C26.0999 42.6667 26.9999 41.7667 26.9999 40.6667C26.9999 39.5667 26.0999 38.6667 24.9999 38.6667C22.2666 38.6667 20.0666 36.4333 20.0666 33.7333C20.0666 31.5333 21.5333 29.6333 23.5333 29V26.7667H26.4666V29C28.4666 29.6333 29.9333 31.5 29.9333 33.7333H26.9999C26.9999 32.6333 26.0999 31.7334 24.9999 31.7334C23.8999 31.7334 22.9999 32.6333 22.9999 33.7333C22.9999 34.8333 23.8999 35.7334 24.9999 35.7334Z" />
<path d="M13.1333 26.9332V19.3999H5.63333V29.3999H0V32.3332H10.0667C10.7 30.3666 11.7667 28.4999 13.1333 26.9332Z" />
<path d="M33.9333 6.46655H26.4667V21.5666C29.2333 21.8332 31.8 22.7999 33.9333 24.2999V6.46655Z" />
<path d="M23.5333 12.9333H16.0667V24.3C18.2333 22.8 20.8 21.8333 23.5333 21.5667V12.9333Z" />
</g>
<defs>
<clipPath id="clip0_86_145">
<rect width="50" height="50" fill="white"/>
</clipPath>
</defs>
</svg>
