<svg width="44" height="50" fill="currentColor" viewBox="0 0 44 50" xmlns="http://www.w3.org/2000/svg">
<path d="M1.75614 49.9999H33.3591C33.9381 49.9999 34.3985 49.4867 34.3985 48.9078C34.3985 46.0396 32.0698 43.6977 29.1884 43.6977H22.7941V39.4348C18.9391 38.8822 15.3473 37.356 12.2817 34.9746V43.6977H5.92689C3.05867 43.6977 0.716736 46.0396 0.716736 48.9605C0.716736 49.5394 1.17723 49.9999 1.75614 49.9999Z"/>
<path d="M26.0571 37.5798C31.2541 37.5798 36.4511 35.6326 40.4113 31.7118C40.6087 31.5145 40.7271 31.2513 40.7271 30.975C40.7271 30.6987 40.6219 30.4356 40.4245 30.2382L35.1486 24.9623L39.4509 6.20049C39.6746 6.25312 39.9114 6.27943 40.135 6.27943C41.0034 6.27943 41.8586 5.93735 42.477 5.25319C43.0427 4.63481 43.319 3.81908 43.2796 2.97704C43.2401 2.13499 42.8585 1.35873 42.2402 0.806141C41.6218 0.253549 40.806 -0.0359041 39.9772 0.00356672C39.1483 0.0561945 38.3589 0.424589 37.8063 1.04297C37.0432 1.88501 36.8458 3.02967 37.1484 4.04275L18.7681 8.56874L13.0054 2.806C12.808 2.60864 12.5317 2.49023 12.2686 2.49023C12.0055 2.49023 11.716 2.60864 11.5318 2.806C3.66396 10.7791 3.71659 23.6992 11.6239 31.6197C15.5973 35.5931 20.8338 37.5798 26.0703 37.5798H26.0571ZM33.425 23.2387L27.557 17.3707L36.9116 8.01615L33.4382 23.2387H33.425ZM35.3591 6.62152L26.0834 15.8972L20.4786 10.2923L35.3591 6.62152Z"/>
</svg>
