<svg width="48" height="48" viewBox="0 0 48 48" fill="none" xmlns="http://www.w3.org/2000/svg">
<rect width="48" height="48" fill="white"/>
<path d="M24 47C36.7025 47 47 36.7025 47 24C47 11.2975 36.7025 1 24 1C11.2975 1 1 11.2975 1 24C1 36.7025 11.2975 47 24 47Z" fill="url(#paint0_linear_263_11)"/>
<path d="M17.0037 37.1859C16.5629 37.1859 16.1104 37.0996 15.6482 36.9269C15.1839 36.7542 14.7919 36.5206 14.4759 36.2262C14.158 35.9318 14 35.5864 14 35.1939C14 35.1193 14.0117 34.9976 14.0371 34.8249L21.1114 11.6231C21.2831 11.0834 21.6673 10.6771 22.2661 10.4063C22.8649 10.1354 23.5066 10 24.1912 10C24.8759 10 25.5468 10.1354 26.1339 10.4063C26.721 10.6771 27.0994 11.0834 27.271 11.6231L34.3474 34.8249C34.3961 34.9976 34.4215 35.1193 34.4215 35.1939C34.4215 35.5629 34.2557 35.9004 33.9261 36.2086C33.5964 36.5167 33.1985 36.7561 32.7343 36.9288C32.2701 37.1015 31.8176 37.1879 31.3787 37.1879C30.9867 37.1879 30.6512 37.1212 30.3703 36.9857C30.0895 36.8503 29.9003 36.5991 29.8028 36.2301L28.4101 31.3236H19.9782L18.6226 36.2301C18.5251 36.5991 18.3301 36.8523 18.0355 36.9857C17.743 37.1212 17.3997 37.1879 17.0096 37.1879L17.0037 37.1859ZM20.9983 27.5574H27.3764L24.1873 16.2332L20.9983 27.5574Z" fill="#082D53"/>
<defs>
<linearGradient id="paint0_linear_263_11" x1="24" y1="47" x2="24" y2="1" gradientUnits="userSpaceOnUse">
<stop stop-color="#D8DCE2"/>
<stop offset="0.35" stop-color="#D3D8E2"/>
<stop offset="0.73" stop-color="#C6CCE3"/>
<stop offset="1" stop-color="#B9C1E5"/>
</linearGradient>
</defs>
</svg>
