<svg width="20" height="20" viewBox="0 0 20 20" fill="none" xmlns="http://www.w3.org/2000/svg">
<g clip-path="url(#clip0_86_105)">
<path d="M18 0H2C0.893333 0 0 0.893333 0 2V18C0 19.1067 0.893333 20 2 20H18C19.1067 20 20 19.1067 20 18V2C20 0.893333 19.1067 0 18 0ZM6.36667 16.3333H3.7V7.73333H6.36667V16.3333ZM4.96667 6.53333C4.1 6.53333 3.43333 5.8 3.43333 5C3.43333 4.2 4.16667 3.46667 4.96667 3.46667C5.83333 3.46667 6.5 4.2 6.5 5C6.56667 5.8 5.83333 6.53333 4.96667 6.53333ZM16.4333 16.3333H13.7667V12.1333C13.7667 11.1333 13.7667 9.86667 12.3667 9.86667C10.9667 9.86667 10.7667 10.9333 10.7667 12.0667V16.3333H8.1V7.73333H10.7V8.93333H10.7667C11.1 8.26667 11.9667 7.53333 13.3 7.53333C16.0333 7.53333 16.5 9.33333 16.5 11.6667C16.4333 11.6667 16.4333 16.3333 16.4333 16.3333Z" fill="white"/>
</g>
<defs>
<clipPath id="clip0_86_105">
<rect width="20" height="20" fill="white"/>
</clipPath>
</defs>
</svg>
