<svg width="33" height="26" viewBox="0 0 33 26" fill="none" xmlns="http://www.w3.org/2000/svg">
<g clip-path="url(#clip0_58_491)">
<mask id="mask0_58_491" style="mask-type:luminance" maskUnits="userSpaceOnUse" x="-1" y="0" width="34" height="26">
<path d="M-0.00158691 0.907959H32.9952V25.908H-0.00158691V0.907959Z" fill="white"/>
</mask>
<g mask="url(#mask0_58_491)">
<path fill-rule="evenodd" clip-rule="evenodd" d="M-2.06567 0.907959H35.0593V25.908H-2.06567V0.907959Z" fill="#0C590B"/>
<path fill-rule="evenodd" clip-rule="evenodd" d="M-2.06567 0.907959H7.23975V25.908H-2.06567V0.907959Z" fill="white"/>
<path fill-rule="evenodd" clip-rule="evenodd" d="M22.0414 11.9138L20.5332 11.5916L19.7404 12.9246L19.576 11.3816L18.0775 11.03L19.4794 10.3953L19.3489 8.84741L20.3833 9.99976L21.7997 9.39429L21.0311 10.7419L22.0462 11.9138H22.0414Z" fill="white"/>
<path fill-rule="evenodd" clip-rule="evenodd" d="M22.607 15.8494C22.2863 16.5593 21.8296 17.1981 21.2631 17.7287C20.6967 18.2594 20.0318 18.6715 19.3069 18.9411C18.5819 19.2108 17.8112 19.3327 17.0394 19.2999C16.2675 19.267 15.5097 19.0801 14.8098 18.7498C14.106 18.4213 13.4732 17.9559 12.9476 17.3802C12.4221 16.8045 12.0141 16.1298 11.7469 15.3946C11.4798 14.6595 11.3588 13.8783 11.3908 13.0959C11.4228 12.3135 11.6072 11.5451 11.9335 10.8347C12.2612 10.0978 12.7373 9.43797 13.3316 8.89738C13.9259 8.35678 14.6252 7.9473 15.385 7.69507C15.186 7.86246 14.9956 8.04011 14.8146 8.22729C13.8715 9.28231 13.3708 10.666 13.4182 12.0867C13.4656 13.5074 14.0573 14.854 15.0685 15.8425C16.0798 16.831 17.4315 17.3843 18.8388 17.3855C20.246 17.3868 21.5988 16.8361 22.6118 15.8494H22.607Z" fill="white"/>
</g>
</g>
<defs>
<clipPath id="clip0_58_491">
<rect y="0.907959" width="33" height="25" rx="3" fill="white"/>
</clipPath>
</defs>
</svg>
