<svg width="34" height="26" viewBox="0 0 34 26" fill="none" xmlns="http://www.w3.org/2000/svg">
<g clip-path="url(#clip0_58_474)">
<path d="M0 0.907959H34V25.908H0" fill="#BD3D44"/>
<path d="M0 3.78809H34H0ZM0 7.62663H34H0ZM0 11.4808H34H0ZM0 15.335H34H0ZM0 19.1891H34H0ZM0 23.0433H34H0Z" fill="black"/>
<path d="M0 2.82471V4.75179H34V2.82471H0ZM0 6.66325V8.59033H34V6.66325H0ZM0 10.5174V12.4445H34V10.5174H0ZM0 14.3716V16.2987H34V14.3716H0ZM0 18.2257V20.1528H34V18.2257H0ZM0 22.0799V24.007H34V22.0799H0Z" fill="white"/>
<path d="M0 0.907959H19.38V14.3715H0" fill="#192F5D"/>
<path d="M17.7438 12.2622L18.2219 13.6685L17 12.783H18.4875L17.2656 13.6685L17.7438 12.2622ZM14.5563 12.2622L15.0344 13.6685L13.8125 12.783H15.3L14.0781 13.6685L14.5563 12.2622ZM11.3156 12.2622L11.7938 13.6685L10.5719 12.783H12.0594L10.8375 13.6685L11.3156 12.2622ZM8.07501 12.2622L8.55313 13.6685L7.33126 12.783H8.81876L7.59688 13.6685L8.07501 12.2622ZM4.83438 12.2622L5.31251 13.6685L4.09063 12.783H5.57813L4.35626 13.6685L4.83438 12.2622ZM1.59376 12.2622L2.07188 13.6685L0.850006 12.783H2.33751L1.11563 13.6685L1.59376 12.2622ZM16.15 10.908L16.6281 12.3143L15.4063 11.4289H16.8938L15.6719 12.3143L16.15 10.908ZM12.9094 10.908L13.3875 12.3143L12.1656 11.4289H13.6531L12.4313 12.3143L12.9094 10.908ZM9.72188 10.908L10.2 12.3143L8.97813 11.4289H10.4656L9.24376 12.3143L9.72188 10.908ZM6.48126 10.908L6.95938 12.3143L5.73751 11.4289H7.22501L6.00313 12.3143L6.48126 10.908ZM3.24063 10.908L3.71876 12.3143L2.49688 11.4289H3.98438L2.76251 12.3143L3.24063 10.908ZM17.7438 9.55387L18.2219 10.9601L17 10.0747H18.4875L17.2656 10.9601L17.7438 9.55387ZM14.5563 9.55387L15.0344 10.9601L13.8125 10.0747H15.3L14.0781 10.9601L14.5563 9.55387ZM11.3156 9.55387L11.7938 10.9601L10.5719 10.0747H12.0594L10.8375 10.9601L11.3156 9.55387ZM8.07501 9.55387L8.55313 10.9601L7.33126 10.0747H8.81876L7.59688 10.9601L8.07501 9.55387ZM4.83438 9.55387L5.31251 10.9601L4.09063 10.0747H5.57813L4.35626 10.9601L4.83438 9.55387ZM1.59376 9.55387L2.07188 10.9601L0.850006 10.0747H2.33751L1.11563 10.9601L1.59376 9.55387ZM16.15 8.25179L16.6281 9.65804L15.4063 8.77262H16.8938L15.6719 9.65804L16.15 8.25179ZM12.9094 8.25179L13.3875 9.65804L12.1656 8.77262H13.6531L12.4313 9.65804L12.9094 8.25179ZM9.72188 8.25179L10.2 9.65804L8.97813 8.77262H10.4656L9.24376 9.65804L9.72188 8.25179ZM6.48126 8.25179L6.95938 9.65804L5.73751 8.77262H7.22501L6.00313 9.65804L6.48126 8.25179ZM3.24063 8.25179L3.71876 9.65804L2.49688 8.77262H3.98438L2.76251 9.65804L3.24063 8.25179ZM17.7438 6.89762L18.2219 8.30387L17 7.41846H18.4875L17.2656 8.30387L17.7438 6.89762ZM14.5563 6.89762L15.0344 8.30387L13.8125 7.41846H15.3L14.0781 8.30387L14.5563 6.89762ZM11.3156 6.89762L11.7938 8.30387L10.5719 7.41846H12.0594L10.8375 8.30387L11.3156 6.89762ZM8.07501 6.89762L8.55313 8.30387L7.33126 7.41846H8.81876L7.59688 8.30387L8.07501 6.89762ZM4.83438 6.89762L5.31251 8.30387L4.09063 7.41846H5.57813L4.35626 8.30387L4.83438 6.89762ZM1.59376 6.89762L2.07188 8.30387L0.850006 7.41846H2.33751L1.11563 8.30387L1.59376 6.89762ZM16.15 5.54346L16.6281 6.94971L15.4063 6.06429H16.8938L15.6719 6.94971L16.15 5.54346ZM12.9094 5.54346L13.3875 6.94971L12.1656 6.06429H13.6531L12.4313 6.94971L12.9094 5.54346ZM9.72188 5.54346L10.2 6.94971L8.97813 6.06429H10.4656L9.24376 6.94971L9.72188 5.54346ZM6.48126 5.54346L6.95938 6.94971L5.73751 6.06429H7.22501L6.00313 6.94971L6.48126 5.54346ZM3.24063 5.54346L3.71876 6.94971L2.49688 6.06429H3.98438L2.76251 6.94971L3.24063 5.54346ZM17.7438 4.18929L18.2219 5.59554L17 4.71012H18.4875L17.2656 5.59554L17.7438 4.18929ZM14.5563 4.18929L15.0344 5.59554L13.8125 4.71012H15.3L14.0781 5.59554L14.5563 4.18929ZM11.3156 4.18929L11.7938 5.59554L10.5719 4.71012H12.0594L10.8375 5.59554L11.3156 4.18929ZM8.07501 4.18929L8.55313 5.59554L7.33126 4.71012H8.81876L7.59688 5.59554L8.07501 4.18929ZM4.83438 4.18929L5.31251 5.59554L4.09063 4.71012H5.57813L4.35626 5.59554L4.83438 4.18929ZM1.59376 4.18929L2.07188 5.59554L0.850006 4.71012H2.33751L1.11563 5.59554L1.59376 4.18929ZM16.15 2.83512L16.6281 4.24137L15.4063 3.35596H16.8938L15.6719 4.24137L16.15 2.83512ZM12.9094 2.83512L13.3875 4.24137L12.1656 3.35596H13.6531L12.4313 4.24137L12.9094 2.83512ZM9.72188 2.83512L10.2 4.24137L8.97813 3.35596H10.4656L9.24376 4.24137L9.72188 2.83512ZM6.48126 2.83512L6.95938 4.24137L5.73751 3.35596H7.22501L6.00313 4.24137L6.48126 2.83512ZM3.24063 2.83512L3.71876 4.24137L2.49688 3.35596H3.98438L2.76251 4.24137L3.24063 2.83512ZM17.7438 1.48096L18.2219 2.88721L17 2.00179H18.4875L17.2656 2.88721L17.7438 1.48096ZM14.5563 1.48096L15.0344 2.88721L13.8125 2.00179H15.3L14.0781 2.88721L14.5563 1.48096ZM11.3156 1.48096L11.7938 2.88721L10.5719 2.00179H12.0594L10.8375 2.88721L11.3156 1.48096ZM8.07501 1.48096L8.55313 2.88721L7.33126 2.00179H8.81876L7.59688 2.88721L8.07501 1.48096ZM4.83438 1.48096L5.31251 2.88721L4.09063 2.00179H5.57813L4.35626 2.88721L4.83438 1.48096ZM1.59376 1.48096L2.07188 2.88721L0.850006 2.00179H2.33751L1.11563 2.88721L1.59376 1.48096Z" fill="white"/>
</g>
<defs>
<clipPath id="clip0_58_474">
<rect y="0.907959" width="34" height="25" rx="3" fill="white"/>
</clipPath>
</defs>
</svg>
