<?xml version="1.0" encoding="UTF-8"?>
<svg version="1.1" xmlns="http://www.w3.org/2000/svg" width="405" height="154">
<path d="M0 0 C0 0.66 0 1.32 0 2 C1.2375 2.144375 2.475 2.28875 3.75 2.4375 C6.56504499 2.78688502 9.2701497 3.20379366 12 4 C12 4.66 12 5.32 12 6 C13.6396875 6.2165625 13.6396875 6.2165625 15.3125 6.4375 C19 7 19 7 22 8 C21.67 11.3 21.34 14.6 21 18 C20.34 18 19.68 18 19 18 C18.34 20.97 17.68 23.94 17 27 C16.34 27 15.68 27 15 27 C14.34 29.31 13.68 31.62 13 34 C12.34 34 11.68 34 11 34 C10.76667969 34.87398437 10.53335938 35.74796875 10.29296875 36.6484375 C7.69239892 43.38949161 1.58366276 49.73918279 -4.5625 53.5625 C-12.98356666 57.08403697 -20.31286027 57.85702522 -29.0625 55 C-35.52831125 50.59774553 -40.73183114 44.86237269 -42.6015625 37.140625 C-43.14195789 32.88103778 -43.31552477 28.66630299 -43.375 24.375 C-43.38917969 23.57529785 -43.40335938 22.7755957 -43.41796875 21.95166016 C-43.36473201 15.50336056 -42.32691439 9.84786537 -38.16796875 4.7578125 C-37.51441406 4.21898437 -36.86085938 3.68015625 -36.1875 3.125 C-35.54167969 2.57070313 -34.89585938 2.01640625 -34.23046875 1.4453125 C-24.4461888 -4.89476383 -10.76052378 -2.50556895 0 0 Z " fill="#FD9100" transform="translate(43,29)"/>
<path d="M0 0 C1.32 0 2.64 0 4 0 C4 1.65 4 3.3 4 5 C4.66 5 5.32 5 6 5 C7.24113378 13.53279474 7.24113378 21.46720526 6 30 C5.34 30 4.68 30 4 30 C3.9071875 31.7015625 3.9071875 31.7015625 3.8125 33.4375 C3.19740167 38.64719648 0.74860504 42.61845986 -2 47 C-2.66 47 -3.32 47 -4 47 C-4.226875 47.556875 -4.45375 48.11375 -4.6875 48.6875 C-8.03461323 54.58479473 -14.32393007 59.38442121 -20 63 C-21.66250177 63.35352049 -23.32866609 63.6909177 -25 64 C-25.33 64.66 -25.66 65.32 -26 66 C-37.51201567 70.53819062 -51.23271581 70.3620812 -63 67 C-63.33 65.68 -63.66 64.36 -64 63 C-58.06 62.505 -58.06 62.505 -52 62 C-52 61.34 -52 60.68 -52 60 C-50.02 59.34 -48.04 58.68 -46 58 C-46 57.34 -46 56.68 -46 56 C-45.278125 55.34 -44.55625 54.68 -43.8125 54 C-33.70354923 44.17661281 -31.65196346 27.07238215 -28.83203125 13.87109375 C-28.26398129 11.22819465 -27.66695378 8.61729381 -27 6 C-25.31583984 6.16048828 -25.31583984 6.16048828 -23.59765625 6.32421875 C-11.97140705 7.42613568 -11.97140705 7.42613568 -1 4 C-0.2337297 1.95368523 -0.2337297 1.95368523 0 0 Z " fill="#FE6700" transform="translate(96,33)"/>
<path d="M0 0 C0.96873047 -0.01611328 1.93746094 -0.03222656 2.93554688 -0.04882812 C11.57470864 -0.05459141 20.51421194 1.11805002 27.6875 6.3125 C26.98038052 9.98952128 25.35322483 12.98105034 23.6875 16.3125 C23.00113375 18.54775035 23.00113375 18.54775035 22.6875 20.3125 C22.0275 20.3125 21.3675 20.3125 20.6875 20.3125 C20.3575 22.9525 20.0275 25.5925 19.6875 28.3125 C12.2455222 27.5556887 12.2455222 27.5556887 9.52734375 26.37109375 C5.42866421 24.84325034 1.25525375 24.36173573 -3.0625 23.75 C-4.78699025 23.50237438 -6.51098473 23.25126239 -8.234375 22.99609375 C-8.99331055 22.88837646 -9.75224609 22.78065918 -10.53417969 22.66967773 C-12.3125 22.3125 -12.3125 22.3125 -13.3125 21.3125 C-22.58407152 20.30628294 -30.19765951 21.69154917 -38.3125 26.3125 C-40.20717634 27.86699582 -41.67701985 29.47258483 -43.3125 31.3125 C-45.625 32.125 -45.625 32.125 -47.3125 32.3125 C-47.6425 31.6525 -47.9725 30.9925 -48.3125 30.3125 C-47.8175 28.8275 -47.8175 28.8275 -47.3125 27.3125 C-46.6525 27.3125 -45.9925 27.3125 -45.3125 27.3125 C-45.06628906 26.425625 -44.82007813 25.53875 -44.56640625 24.625 C-40.7729001 14.60352581 -31.15277405 8.64979946 -22.25 3.5625 C-14.8414067 0.40990711 -7.95414641 -0.02614775 0 0 Z " fill="#FE6400" transform="translate(50.3125,-0.3125)"/>
<path d="M0 0 C5.98122372 4.45114323 10.51193622 9.83343697 12.6875 17 C12.94983643 19.7619571 12.87986964 22.21064026 12.6875 25 C11.6875 26 11.6875 26 8.45288086 26.11352539 C7.01935874 26.11336631 5.58583088 26.10767407 4.15234375 26.09765625 C3.02246788 26.09553383 3.02246788 26.09553383 1.86976624 26.09336853 C-0.5451956 26.08775376 -2.96006601 26.07519883 -5.375 26.0625 C-7.00846221 26.0574869 -8.64192586 26.05292366 -10.27539062 26.04882812 C-14.28779585 26.03777954 -18.30013241 26.02050506 -22.3125 26 C-22.6425 26.99 -22.9725 27.98 -23.3125 29 C-22.6525 29 -21.9925 29 -21.3125 29 C-20.920625 29.928125 -20.52875 30.85625 -20.125 31.8125 C-18.06870127 35.42874949 -17.17309654 36.52147367 -13.3125 38 C-7.14984845 38.74199149 -2.71991394 38.21869877 2.6875 35 C4.9375 34.25 4.9375 34.25 6.6875 34 C7.6775 34.495 7.6775 34.495 8.6875 35 C9.0625 37.25 9.0625 37.25 8.6875 40 C5.5555624 42.57514869 3.79339421 44 -0.3125 44 C-0.3125 44.66 -0.3125 45.32 -0.3125 46 C-9.35707566 47.34667726 -15.75829212 46.5183442 -23.51171875 41.4296875 C-26.26721191 39.24202916 -27.68480441 37.11974988 -29.3125 34 C-29.3125 33.01 -29.3125 32.02 -29.3125 31 C-29.9725 31 -30.6325 31 -31.3125 31 C-32.64507403 19.47835991 -32.64507403 19.47835991 -31.3125 14 C-30.6525 14 -29.9925 14 -29.3125 14 C-29.23 13.278125 -29.1475 12.55625 -29.0625 11.8125 C-27.49244507 5.924794 -23.37332532 3.01495976 -18.3125 0 C-12.4934392 -1.93968693 -5.84577518 -1.76476232 0 0 Z M-18.3125 8 C-20.1753419 9.84395635 -20.1753419 9.84395635 -21.3125 12 C-21.725 12.680625 -22.1375 13.36125 -22.5625 14.0625 C-23.61225954 16.16300973 -23.61225954 16.16300973 -22.3125 19 C-13.4025 19 -4.4925 19 4.6875 19 C3.12191245 13.76623611 3.12191245 13.76623611 0.6875 9 C-1.36250871 8.19471111 -1.36250871 8.19471111 -3.3125 8 C-3.3125 7.34 -3.3125 6.68 -3.3125 6 C-9.35247294 4.83439119 -12.76263443 4.84419409 -18.3125 8 Z " fill="#5A5A5A" transform="translate(313.3125,36)"/>
<path d="M0 0 C4.07066809 3.13128315 6.52956967 6.83076021 7.4375 11.875 C7.63666142 16.33387273 7.62330785 20.79385663 7.62280273 25.2565918 C7.6249961 27.43362786 7.64319222 29.6101624 7.66210938 31.78710938 C7.66504237 33.17187327 7.66702779 34.55663957 7.66796875 35.94140625 C7.67207764 37.19896729 7.67618652 38.45652832 7.68041992 39.75219727 C7.4375 42.875 7.4375 42.875 5.4375 45.875 C2.9375 46.25 2.9375 46.25 0.4375 45.875 C-0.2225 44.885 -0.8825 43.895 -1.5625 42.875 C-3.5425 43.37 -3.5425 43.37 -5.5625 43.875 C-5.5625 44.535 -5.5625 45.195 -5.5625 45.875 C-16.12058656 47.20757403 -16.12058656 47.20757403 -20.5625 45.875 C-20.5625 45.215 -20.5625 44.555 -20.5625 43.875 C-21.305 43.66875 -22.0475 43.4625 -22.8125 43.25 C-26.62218482 41.34515759 -27.73320346 39.73684826 -29.5625 35.875 C-30.42078193 30.59815557 -30.51199705 25.58877303 -27.625 20.9375 C-24.41047012 17.13684502 -20.30418782 15.19116702 -15.5625 13.875 C-13.0625 13.9375 -13.0625 13.9375 -10.5625 14.875 C-8.95894715 15.39772011 -7.3547274 15.91839689 -5.75 16.4375 C-4.35316707 16.91374483 -2.95699109 17.391941 -1.5625 17.875 C-1.13018505 12.89133739 -1.13018505 12.89133739 -3.1875 8.5 C-6.12430862 6.49060463 -8.0082622 6.01716951 -11.5625 5.875 C-14.67931225 6.69164605 -14.67931225 6.69164605 -17.5625 7.875 C-18.7071875 8.0915625 -18.7071875 8.0915625 -19.875 8.3125 C-20.431875 8.498125 -20.98875 8.68375 -21.5625 8.875 C-21.8925 9.865 -22.2225 10.855 -22.5625 11.875 C-23.5525 11.875 -24.5425 11.875 -25.5625 11.875 C-27.5625 8.875 -27.5625 8.875 -27.4375 6.8125 C-26.3038007 4.30216583 -25.07631062 3.84808798 -22.5625 2.875 C-22.5625 2.215 -22.5625 1.555 -22.5625 0.875 C-15.24183898 -1.89229806 -7.50800965 -2.37095041 0 0 Z M-20.25 23.3125 C-22.16510455 27.05151365 -22.54464267 30.77311 -21.5625 34.875 C-19.43874442 37.75831052 -18.2780564 38.74999909 -14.72265625 39.37109375 C-13.70042969 39.35175781 -12.67820312 39.33242187 -11.625 39.3125 C-10.60535156 39.31121094 -9.58570313 39.30992188 -8.53515625 39.30859375 C-5.11770515 38.81012191 -3.21113804 38.0983093 -0.5625 35.875 C0.0404084 33.37138211 0.0404084 33.37138211 -0.25 30.6875 C-0.29511719 29.78644531 -0.34023438 28.88539062 -0.38671875 27.95703125 C-0.44472656 27.26996094 -0.50273437 26.58289063 -0.5625 25.875 C-1.5525 25.545 -2.5425 25.215 -3.5625 24.875 C-3.5625 24.215 -3.5625 23.555 -3.5625 22.875 C-8.89753717 21.09665428 -15.20898788 20.61614468 -20.25 23.3125 Z " fill="#575757" transform="translate(386.5625,36.125)"/>
<path d="M0 0 C3.43953687 2.49366423 5.01145495 4.90550279 6.0637207 9.01293945 C6.92508281 14.54021379 6.68591609 20.16831874 6.68530273 25.75170898 C6.68750321 28.00328084 6.70572642 30.25437316 6.72460938 32.50585938 C6.72754107 33.93489416 6.72952736 35.36393127 6.73046875 36.79296875 C6.73457764 38.09129639 6.73868652 39.38962402 6.74291992 40.72729492 C6.5 43.8125 6.5 43.8125 4.5 45.8125 C1.9375 46 1.9375 46 -0.5 45.8125 C-2.41513109 43.89736891 -1.69945174 40.43159374 -1.74609375 37.890625 C-1.77905045 36.45832764 -1.81226177 35.02603612 -1.84570312 33.59375 C-1.89299829 31.33142382 -1.93738468 29.06911816 -1.97680664 26.80664062 C-2.0167015 24.6260402 -2.06822281 22.44594411 -2.12109375 20.265625 C-2.1461499 18.95754883 -2.17120605 17.64947266 -2.19702148 16.30175781 C-2.49996446 12.81290928 -2.92012029 9.39237971 -5.5 6.8125 C-7.65925781 6.53436981 -7.65925781 6.53436981 -10.1875 6.5 C-11.03699219 6.46261719 -11.88648438 6.42523438 -12.76171875 6.38671875 C-16.59748293 6.98314998 -18.5518731 8.29085529 -21.5 10.8125 C-22.12225545 13.69067714 -22.34088798 15.76230596 -22.3046875 18.640625 C-22.31839386 19.38963074 -22.33210022 20.13863647 -22.34622192 20.91033936 C-22.38351633 23.29500424 -22.3798083 25.67758496 -22.375 28.0625 C-22.39312753 29.68232421 -22.41393042 31.30212084 -22.4375 32.921875 C-22.48934434 36.88576578 -22.50443141 40.84828878 -22.5 44.8125 C-24.8260857 45.19313221 -27.16055264 45.52519945 -29.5 45.8125 C-30.5 44.8125 -30.5 44.8125 -30.62025452 42.98387146 C-30.61803391 42.18667191 -30.61581329 41.38947235 -30.61352539 40.56811523 C-30.61344986 39.66725693 -30.61337433 38.76639862 -30.61329651 37.83824158 C-30.60813522 36.85908279 -30.60297394 35.87992401 -30.59765625 34.87109375 C-30.5962413 33.87368668 -30.59482635 32.8762796 -30.59336853 31.84864807 C-30.58775114 28.64906876 -30.57519571 25.44955831 -30.5625 22.25 C-30.55748724 20.08658955 -30.55292395 17.92317801 -30.54882812 15.75976562 C-30.53777607 10.44398675 -30.52102104 5.12824829 -30.5 -0.1875 C-27.86 -0.1875 -25.22 -0.1875 -22.5 -0.1875 C-22.17 0.8025 -21.84 1.7925 -21.5 2.8125 C-20.901875 2.338125 -20.30375 1.86375 -19.6875 1.375 C-14.086276 -2.62587428 -6.27946193 -2.13053173 0 0 Z " fill="#5B5B5B" transform="translate(269.5,36.1875)"/>
<path d="M0 0 C0 0.66 0 1.32 0 2 C0.66 2 1.32 2 2 2 C3.64280429 7.02915088 4.29723843 11.52651915 4.265625 16.83203125 C4.26849518 17.9087635 4.26849518 17.9087635 4.27142334 19.00724792 C4.27277465 20.51061355 4.2691525 22.01399127 4.26074219 23.51733398 C4.24994773 25.82366746 4.26071303 28.12923603 4.2734375 30.43554688 C4.27211726 31.90104339 4.26955768 33.36653942 4.265625 34.83203125 C4.26967346 35.52158401 4.27372192 36.21113678 4.27789307 36.92158508 C4.22997931 41.77002069 4.22997931 41.77002069 2 44 C-0.5625 44.1875 -0.5625 44.1875 -3 44 C-5.0568946 41.9431054 -4.25747076 37.64444002 -4.31640625 34.80859375 C-4.33718735 33.98875504 -4.35796844 33.16891632 -4.37937927 32.32423401 C-4.44496494 29.69541099 -4.50380126 27.06648496 -4.5625 24.4375 C-4.60567667 22.65949439 -4.64929067 20.88149935 -4.69335938 19.10351562 C-4.80065543 14.73578366 -4.90189704 10.36794773 -5 6 C-5.66 6 -6.32 6 -7 6 C-7 5.34 -7 4.68 -7 4 C-8.70928263 4.06082856 -10.41757113 4.14983084 -12.125 4.25 C-13.55199219 4.31960937 -13.55199219 4.31960937 -15.0078125 4.390625 C-18.90044831 5.18338112 -20.97592204 6.411509 -24 9 C-24.61026663 11.8690994 -24.81823071 13.92647715 -24.76953125 16.79296875 C-24.78086594 17.53960281 -24.79220062 18.28623688 -24.80387878 19.05549622 C-24.83456335 21.43354199 -24.82476484 23.8093235 -24.8125 26.1875 C-24.82665382 28.5756566 -24.84898639 30.9635806 -24.87467957 33.35163879 C-24.88775552 34.83619695 -24.89245226 36.32085622 -24.88813782 37.8054657 C-24.89254953 42.89254953 -24.89254953 42.89254953 -26 44 C-27.99958364 44.04080783 -30.00045254 44.04254356 -32 44 C-33.15007105 41.69985789 -33.12670485 40.39884232 -33.12939453 37.84155273 C-33.13254669 36.98403915 -33.13569885 36.12652557 -33.13894653 35.24302673 C-33.1369223 34.31591385 -33.13489807 33.38880096 -33.1328125 32.43359375 C-33.13376923 31.48436539 -33.13472595 30.53513702 -33.13571167 29.55714417 C-33.1363928 27.548919 -33.13454319 25.54069165 -33.13037109 23.5324707 C-33.12501601 20.44672745 -33.1303214 17.36112937 -33.13671875 14.27539062 C-33.13605807 12.32812468 -33.13477713 10.38085882 -33.1328125 8.43359375 C-33.13483673 7.50445663 -33.13686096 6.57531952 -33.13894653 5.61802673 C-33.13579437 4.76366531 -33.13264221 3.90930389 -33.12939453 3.02905273 C-33.12820114 1.89559669 -33.12820114 1.89559669 -33.12698364 0.73924255 C-33 -1 -33 -1 -32 -2 C-29.66702567 -2.04092937 -27.33294775 -2.04241723 -25 -2 C-24.67 -1.01 -24.34 -0.02 -24 1 C-23.13375 0.2884375 -23.13375 0.2884375 -22.25 -0.4375 C-15.75075064 -4.95086761 -6.43667158 -4.06526626 0 0 Z " fill="#575757" transform="translate(180,38)"/>
<path d="M0 0 C0.78503906 -0.00257812 1.57007813 -0.00515625 2.37890625 -0.0078125 C4.4375 0.125 4.4375 0.125 6.4375 1.125 C6.4375 3.105 6.4375 5.085 6.4375 7.125 C3.31594121 8.12835818 1.56349828 7.93170923 -1.5625 7.125 C-2.5525 7.455 -3.5425 7.785 -4.5625 8.125 C-4.8925 11.095 -5.2225 14.065 -5.5625 17.125 C-2.9225 17.125 -0.2825 17.125 2.4375 17.125 C2.4375 19.105 2.4375 21.085 2.4375 23.125 C-0.2025 23.125 -2.8425 23.125 -5.5625 23.125 C-5.55726318 24.30118896 -5.55202637 25.47737793 -5.54663086 26.68920898 C-5.52858337 31.03702031 -5.51706892 35.3848283 -5.50756836 39.73266602 C-5.50252756 41.6174373 -5.49569502 43.50220465 -5.48706055 45.38696289 C-5.47498383 48.09001636 -5.46926932 50.79301831 -5.46484375 53.49609375 C-5.45968246 54.34400986 -5.45452118 55.19192596 -5.44920349 56.0655365 C-5.44900805 58.08571068 -5.50043789 60.10577934 -5.5625 62.125 C-6.0575 62.62 -6.0575 62.62 -6.5625 63.125 C-8.8725 62.795 -11.1825 62.465 -13.5625 62.125 C-13.5625 49.585 -13.5625 37.045 -13.5625 24.125 C-15.8725 23.795 -18.1825 23.465 -20.5625 23.125 C-20.5625 21.145 -20.5625 19.165 -20.5625 17.125 C-17.0975 16.63 -17.0975 16.63 -13.5625 16.125 C-13.54832031 15.54492188 -13.53414062 14.96484375 -13.51953125 14.3671875 C-13.14781615 8.27909702 -11.99988454 5.35108052 -7.5625 1.125 C-4.73533905 0.18261302 -2.93073877 -0.00965647 0 0 Z " fill="#5B5B5B" transform="translate(209.5625,18.875)"/>
<path d="M0 0 C2.5 1.5 2.5 1.5 4 3 C4 2.01 4 1.02 4 0 C6.375 -0.125 6.375 -0.125 9 0 C11.35953094 2.35953094 11.49141413 3.77895617 12 7 C12.33 6.34 12.66 5.68 13 5 C13.66 5 14.32 5 15 5 C15.33 3.68 15.66 2.36 16 1 C17.32 1.33 18.64 1.66 20 2 C20.66 4.31 21.32 6.62 22 9 C22.99 6.03 23.98 3.06 25 0 C26.65 0 28.3 0 30 0 C29.0026554 7.04007955 27.7758018 13.43901392 25 20 C23.35 20 21.7 20 20 20 C19.01 18.02 18.02 16.04 17 14 C16.34 15.98 15.68 17.96 15 20 C13.02 20 11.04 20 9 20 C8.01 16.04 7.02 12.08 6 8 C5.71125 9.423125 5.4225 10.84625 5.125 12.3125 C4.4619099 15.58058692 3.90318884 17.14521674 2 20 C-2.23824238 21.31560373 -5.93651079 21.46527653 -10 19.6875 C-12.42017166 17.64548016 -12.92027192 16.70730194 -13.2734375 13.57421875 C-13.54456635 5.86790262 -13.54456635 5.86790262 -11 1.8125 C-6.85539733 -0.69153078 -4.80082715 -0.60962884 0 0 Z M-8 6 C-8.02689216 7.47906892 -8.04634621 8.95827483 -8.0625 10.4375 C-8.07410156 11.26121094 -8.08570313 12.08492187 -8.09765625 12.93359375 C-8.23267348 14.99163938 -8.23267348 14.99163938 -7 16 C-4 16.16666667 -4 16.16666667 -1 16 C0.2245178 14.99530377 0.2245178 14.99530377 0.1328125 12.96875 C0.13023437 12.1540625 0.12765625 11.339375 0.125 10.5 C0.12757813 9.6853125 0.13015625 8.870625 0.1328125 8.03125 C0.2245178 6.00469623 0.2245178 6.00469623 -1 5 C-4.63194641 4.80850919 -4.63194641 4.80850919 -8 6 Z " fill="#565656" transform="translate(163,127)"/>
<path d="M0 0 C2.475 0.495 2.475 0.495 5 1 C5.33 0.67 5.66 0.34 6 0 C12.33841463 -0.4695122 12.33841463 -0.4695122 14.9375 1.375 C16 3 16 3 16 5 C16.66 5 17.32 5 18 5 C18.33 6.65 18.66 8.3 19 10 C19.721875 9.505 20.44375 9.01 21.1875 8.5 C24.14848659 6.92080715 25.71253029 6.71821688 29 7 C29 6.34 29 5.68 29 5 C24.545 5.495 24.545 5.495 20 6 C19.67 4.68 19.34 3.36 19 2 C22.06047632 -0.04031755 22.93495994 -0.31593524 26.4375 -0.375 C27.19933594 -0.40335937 27.96117187 -0.43171875 28.74609375 -0.4609375 C32.02886038 0.21040819 33.09054924 1.25004608 35 4 C35.2906124 6.89449949 35.38186045 9.37949935 35.25 12.25 C35.23195312 12.99507812 35.21390625 13.74015625 35.1953125 14.5078125 C35.14835649 16.33909701 35.07661652 18.16971649 35 20 C32.89807303 20.24887295 30.79326036 20.4734719 28.6875 20.6875 C27.51574219 20.81511719 26.34398437 20.94273437 25.13671875 21.07421875 C22 21 22 21 20.20703125 19.64453125 C19.80871094 19.10183594 19.41039062 18.55914062 19 18 C18.34 17.34 17.68 16.68 17 16 C16.319375 16.825 15.63875 17.65 14.9375 18.5 C12 21 12 21 8.1875 21.3125 C7.135625 21.209375 6.08375 21.10625 5 21 C5 22.98 5 24.96 5 27 C3.35 27 1.7 27 0 27 C0 18.09 0 9.18 0 0 Z M7 5 C4.56230782 8.65653827 4.76055561 10.69000101 5 15 C6.06645115 16.29633621 6.06645115 16.29633621 8.5625 16.0625 C9.366875 16.041875 10.17125 16.02125 11 16 C12.80441192 11.32047386 12.80441192 11.32047386 12.125 6.5625 C11.568125 5.7890625 11.568125 5.7890625 11 5 C9.68 5 8.36 5 7 5 Z M24 12 C23.67 13.32 23.34 14.64 23 16 C24.98 16 26.96 16 29 16 C29.33 14.68 29.66 13.36 30 12 C28.02 12 26.04 12 24 12 Z " fill="#585858" transform="translate(202,127)"/>
<path d="M0 0 C0.02312764 7.93613787 0.04091723 15.87226176 0.05181217 23.80842495 C0.05704008 27.49314498 0.06413605 31.17784203 0.07543945 34.86254883 C0.08627162 38.41570831 0.09227753 41.96884563 0.09487724 45.52202034 C0.0967309 46.88045666 0.10035038 48.23889171 0.10573006 49.59731865 C0.11294475 51.49382223 0.11340809 53.39034793 0.11352539 55.28686523 C0.115746 56.36830307 0.11796661 57.44974091 0.12025452 58.56394958 C0 61 0 61 -1 62 C-4 62.125 -4 62.125 -7 62 C-8 61 -8 61 -8.12025452 58.56394958 C-8.11803391 57.48251175 -8.11581329 56.40107391 -8.11352539 55.28686523 C-8.11344986 54.0656749 -8.11337433 52.84448456 -8.11329651 51.58628845 C-8.10818911 50.24372314 -8.10297311 48.90115825 -8.09765625 47.55859375 C-8.09579199 46.19238842 -8.09436813 44.82618243 -8.09336853 43.4599762 C-8.08954394 39.85798305 -8.07971417 36.25603 -8.06866455 32.65405273 C-8.05844916 28.98096255 -8.05387064 25.30786591 -8.04882812 21.63476562 C-8.03809184 14.42315877 -8.02101614 7.211585 -8 0 C-5.13822943 -1.43088528 -3.06624227 -0.59991697 0 0 Z " fill="#595959" transform="translate(136,20)"/>
<path d="M0 0 C0 2.31 0 4.62 0 7 C-1.98 7 -3.96 7 -6 7 C-6 7.66 -6 8.32 -6 9 C-8.31 9.66 -10.62 10.32 -13 11 C-13.33 22.55 -13.66 34.1 -14 46 C-17.465 46.495 -17.465 46.495 -21 47 C-22 46 -22 46 -22.12025452 44.17137146 C-22.11803391 43.37417191 -22.11581329 42.57697235 -22.11352539 41.75561523 C-22.11344986 40.85475693 -22.11337433 39.95389862 -22.11329651 39.02574158 C-22.10813522 38.04658279 -22.10297394 37.06742401 -22.09765625 36.05859375 C-22.0962413 35.06118668 -22.09482635 34.0637796 -22.09336853 33.03614807 C-22.08775114 29.83656876 -22.07519571 26.63705831 -22.0625 23.4375 C-22.05748724 21.27408955 -22.05292395 19.11067801 -22.04882812 16.94726562 C-22.03777607 11.63148675 -22.02102104 6.31574829 -22 1 C-19.36 1 -16.72 1 -14 1 C-13.67 1.99 -13.34 2.98 -13 4 C-12.401875 3.525625 -11.80375 3.05125 -11.1875 2.5625 C-7.46562388 -0.09598294 -4.44772667 -0.09883837 0 0 Z " fill="#5B5B5B" transform="translate(354,35)"/>
<path d="M0 0 C0.495 2.475 0.495 2.475 1 5 C-0.98 5.33 -2.96 5.66 -5 6 C-5.33 6.99 -5.66 7.98 -6 9 C-4.35 9 -2.7 9 -1 9 C-0.67 10.65 -0.34 12.3 0 14 C-1.98 14 -3.96 14 -6 14 C-6 18.95 -6 23.9 -6 29 C-7.65 29 -9.3 29 -11 29 C-11 24.05 -11 19.1 -11 14 C-11.99 14.495 -11.99 14.495 -13 15 C-12.95359375 15.59167969 -12.9071875 16.18335938 -12.859375 16.79296875 C-12.66630347 21.01985618 -12.5780245 23.3248392 -14.875 27 C-17.57581076 29.54193954 -18.52465028 29.94515196 -22.25 30.375 C-25.95018477 30.00498152 -28.14201456 29.40288822 -30.890625 26.82421875 C-33.29795604 22.86568497 -32.86441764 18.40127152 -32 14 C-30 10.8125 -30 10.8125 -27 9 C-22.70486777 8.23122147 -19.70503565 8.52997624 -16 11 C-15.34 10.34 -14.68 9.68 -14 9 C-13.01 9 -12.02 9 -11 9 C-11.103125 8.2575 -11.20625 7.515 -11.3125 6.75 C-11 4 -11 4 -8.875 1.6875 C-5.59957594 -0.23503152 -3.73229119 -0.34718988 0 0 Z M-27 16 C-27.32752234 18.71454956 -27.1308425 21.25230759 -27 24 C-25.88163776 25.34404775 -25.88163776 25.34404775 -23 25.125 C-20.11836224 25.34404775 -20.11836224 25.34404775 -19 24 C-18.9020943 22.50261876 -18.87025136 21.00057108 -18.875 19.5 C-18.87242187 18.6853125 -18.86984375 17.870625 -18.8671875 17.03125 C-18.7754822 15.00469623 -18.7754822 15.00469623 -20 14 C-23.961168 13.60909667 -23.961168 13.60909667 -27 16 Z " fill="#595959" transform="translate(305,118)"/>
<path d="M0 0 C1.98 0 3.96 0 6 0 C8.1171875 2.625 8.1171875 2.625 9.875 6 C10.47054687 7.11375 11.06609375 8.2275 11.6796875 9.375 C12.33324219 10.674375 12.33324219 10.674375 13 12 C13.33 8.04 13.66 4.08 14 0 C16.31 0 18.62 0 21 0 C21.02886751 4.14581887 21.04675327 8.29161216 21.0625 12.4375 C21.07087891 13.62150391 21.07925781 14.80550781 21.08789062 16.02539062 C21.09272461 17.71245117 21.09272461 17.71245117 21.09765625 19.43359375 C21.10551147 20.99678345 21.10551147 20.99678345 21.11352539 22.59155273 C21 25 21 25 20 26 C18.00041636 26.04080783 15.99954746 26.04254356 14 26 C12.99491199 24.21118264 11.99607264 22.41885304 11 20.625 C10.1646875 19.12839844 10.1646875 19.12839844 9.3125 17.6015625 C8 15 8 15 8 13 C7.34 13 6.68 13 6 13 C5.67 17.29 5.34 21.58 5 26 C3.35 26 1.7 26 0 26 C0 17.42 0 8.84 0 0 Z M14 14 C15 16 15 16 15 16 Z " fill="#545454" transform="translate(128,121)"/>
<path d="M0 0 C5 0 5 0 6.625 1.125 C8.43786125 3.59708352 9.67711414 6.23919473 11 9 C11.99 10.485 11.99 10.485 13 12 C13.33 8.04 13.66 4.08 14 0 C15.98 0 17.96 0 20 0 C20 8.58 20 17.16 20 26 C18.02 26 16.04 26 14 26 C13.34 24.02 12.68 22.04 12 20 C11.34 20 10.68 20 10 20 C8.68 17.69 7.36 15.38 6 13 C5.67 17.29 5.34 21.58 5 26 C3.35 26 1.7 26 0 26 C0 17.42 0 8.84 0 0 Z " fill="#585858" transform="translate(314,121)"/>
<path d="M0 0 C1.65 0 3.3 0 5 0 C5 1.65 5 3.3 5 5 C6.65 5 8.3 5 10 5 C10 6.65 10 8.3 10 10 C8.35 10 6.7 10 5 10 C5 13.63 5 17.26 5 21 C6.65 21 8.3 21 10 21 C9.67 22.65 9.34 24.3 9 26 C6.36 25.67 3.72 25.34 1 25 C-1.25495121 20.49009758 -1.2430836 16.94269981 -1 12 C-0.67 11.34 -0.34 10.68 0 10 C-1.27875 10.103125 -2.5575 10.20625 -3.875 10.3125 C-4.59429687 10.37050781 -5.31359375 10.42851562 -6.0546875 10.48828125 C-8.39519216 10.87393036 -8.39519216 10.87393036 -10 14 C-10.45772063 16.73872955 -10.45772063 16.73872955 -10.625 19.6875 C-10.73714844 21.17830078 -10.73714844 21.17830078 -10.8515625 22.69921875 C-10.90054688 23.45847656 -10.94953125 24.21773437 -11 25 C-12.65 25 -14.3 25 -16 25 C-16 18.73 -16 12.46 -16 6 C-11 5 -11 5 -9 5 C-7.62361068 4.8452253 -6.248676 4.67724852 -4.875 4.5 C-2.956875 4.2525 -2.956875 4.2525 -1 4 C-0.67 2.68 -0.34 1.36 0 0 Z " fill="#555555" transform="translate(254,122)"/>
<path d="M0 0 C2.31 0 4.62 0 7 0 C7 15.18 7 30.36 7 46 C5.02 46 3.04 46 1 46 C-0.1650499 43.6699002 -0.1209358 42.32752923 -0.11352539 39.73388672 C-0.11344986 38.85312469 -0.11337433 37.97236267 -0.11329651 37.06491089 C-0.10813522 36.11278717 -0.10297394 35.16066345 -0.09765625 34.1796875 C-0.0962413 33.20589142 -0.09482635 32.23209534 -0.09336853 31.22879028 C-0.08775973 28.11082927 -0.07520573 24.9929394 -0.0625 21.875 C-0.05748613 19.76432395 -0.05292303 17.65364678 -0.04882812 15.54296875 C-0.03778745 10.36195479 -0.02104073 5.18098248 0 0 Z " fill="#5C5C5C" transform="translate(220,36)"/>
<path d="M0 0 C4.53360495 1.27870909 6.9093017 4.03420211 9.8125 7.625 C11.4375 10.6875 11.4375 10.6875 11.375 13.4375 C10.4375 15.6875 10.4375 15.6875 7.4375 17.6875 C5.44458008 17.91455078 5.44458008 17.91455078 3.20703125 17.8828125 C2.40458984 17.87636719 1.60214844 17.86992187 0.77539062 17.86328125 C-0.05798828 17.84652344 -0.89136719 17.82976563 -1.75 17.8125 C-2.59498047 17.80347656 -3.43996094 17.79445313 -4.31054688 17.78515625 C-6.39465243 17.76160703 -8.47861217 17.72573647 -10.5625 17.6875 C-10.8925 16.6975 -11.2225 15.7075 -11.5625 14.6875 C-10.9025 14.6875 -10.2425 14.6875 -9.5625 14.6875 C-9.52125 13.676875 -9.48 12.66625 -9.4375 11.625 C-8.67588713 6.29370993 -5.31134798 1.4249958 0 0 Z " fill="#FE4900" transform="translate(82.5625,11.3125)"/>
<path d="M0 0 C1.21236328 0.02707031 1.21236328 0.02707031 2.44921875 0.0546875 C3.37154297 0.08949219 3.37154297 0.08949219 4.3125 0.125 C4.3125 0.785 4.3125 1.445 4.3125 2.125 C5.3025 2.455 6.2925 2.785 7.3125 3.125 C8.45327657 6.54732972 8.41065117 9.21173217 8.375 12.8125 C8.36597656 13.99199219 8.35695313 15.17148438 8.34765625 16.38671875 C8.33605469 17.29035156 8.32445312 18.19398438 8.3125 19.125 C3.88115177 20.54303143 0.01062348 21.75141646 -4.6875 21.125 C-7.0625 19.5 -7.0625 19.5 -8.6875 17.125 C-9.1327286 14.00839978 -9.22147053 12.09282158 -7.6875 9.3125 C-4.50681546 7.42396856 -1.35280121 7.42543453 2.3125 7.125 C2.3125 6.795 2.3125 6.465 2.3125 6.125 C-0.9875 6.125 -4.2875 6.125 -7.6875 6.125 C-7.6875 4.805 -7.6875 3.485 -7.6875 2.125 C-4.48369983 -0.01086678 -3.66810033 -0.10632175 0 0 Z M-3.6875 12.125 C-3.6875 13.445 -3.6875 14.765 -3.6875 16.125 C-2.0375 16.125 -0.3875 16.125 1.3125 16.125 C1.9725 14.805 2.6325 13.485 3.3125 12.125 C1.0025 12.125 -1.3075 12.125 -3.6875 12.125 Z " fill="#575757" transform="translate(385.6875,126.875)"/>
<path d="M0 0 C1.32 0 2.64 0 4 0 C5.38226016 2.76452033 5.09525387 5.0461363 5.0625 8.125 C5.05347656 9.22070312 5.04445313 10.31640625 5.03515625 11.4453125 C5.02355469 12.28835937 5.01195312 13.13140625 5 14 C5.556875 13.175 6.11375 12.35 6.6875 11.5 C9 9 9 9 11.75 8.6875 C12.86375 8.8421875 12.86375 8.8421875 14 9 C13.64950425 12.24208567 13.43778819 13.61527704 10.9375 15.8125 C10.298125 16.204375 9.65875 16.59625 9 17 C9.33 18.98 9.66 20.96 10 23 C10.66 23 11.32 23 12 23 C13.6875 24.8125 13.6875 24.8125 15 27 C14.67 27.99 14.34 28.98 14 30 C10.75791433 29.64950425 9.38472296 29.43778819 7.1875 26.9375 C6.795625 26.298125 6.40375 25.65875 6 25 C5.34 26.32 4.68 27.64 4 29 C2.68 29 1.36 29 0 29 C0 19.43 0 9.86 0 0 Z M4 22 C5 24 5 24 5 24 Z " fill="#5A5A5A" transform="translate(356,118)"/>
<path d="M0 0 C1.8871875 0.061875 1.8871875 0.061875 3.8125 0.125 C3.8125 0.785 3.8125 1.445 3.8125 2.125 C4.43125 2.351875 5.05 2.57875 5.6875 2.8125 C8.51570184 4.55933055 8.99674894 5.93615493 9.8125 9.125 C9.51434138 13.10044832 8.09022018 15.88362897 5.8125 19.125 C2.12532562 21.58311625 0.16904296 21.43618164 -4.1875 21.125 C-5.1775 20.465 -6.1675 19.805 -7.1875 19.125 C-7.1875 18.465 -7.1875 17.805 -7.1875 17.125 C-7.8475 17.125 -8.5075 17.125 -9.1875 17.125 C-10.70949443 12.55901671 -10.93466734 8.72607286 -8.875 4.3125 C-6.22722776 0.88020265 -4.2101288 -0.13803701 0 0 Z M-3.1875 5.125 C-5.57548682 8.03085687 -5.57548682 8.03085687 -4.875 11.75 C-4.54636877 14.95004312 -4.54636877 14.95004312 -3.1875 16.125 C-1.18791636 16.16580783 0.81295254 16.16754356 2.8125 16.125 C4.30547212 13.13905576 3.93005228 10.41646376 3.8125 7.125 C3.4825 6.465 3.1525 5.805 2.8125 5.125 C-0.10384129 4.8747843 -0.10384129 4.8747843 -3.1875 5.125 Z " fill="#585858" transform="translate(345.1875,126.875)"/>
<path d="M0 0 C2 2 2 2 2.1953125 3.9453125 C2.13020833 5.96354167 2.06510417 7.98177083 2 10 C1.01 10.33 0.02 10.66 -1 11 C-1 11.66 -1 12.32 -1 13 C-2.32 13 -3.64 13 -5 13 C-5 12.34 -5 11.68 -5 11 C-5.99 10.67 -6.98 10.34 -8 10 C-8.75 7.25 -8.75 7.25 -9 4 C-6.47566742 0.31059085 -4.42220028 -0.69824215 0 0 Z " fill="#575757" transform="translate(403,35)"/>
<path d="M0 0 C1.32 0 2.64 0 4 0 C5.65497356 3.30994713 5.10084335 6.99123 5.0625 10.625 C5.05798828 11.42679688 5.05347656 12.22859375 5.04882812 13.0546875 C5.03703168 15.03649006 5.01909605 17.01825433 5 19 C3.35 19.33 1.7 19.66 0 20 C-1.19231274 16.42306178 -1.1461202 13.15817447 -1.125 9.4375 C-1.12886719 8.75236328 -1.13273437 8.06722656 -1.13671875 7.36132812 C-1.12669335 2.2533867 -1.12669335 2.2533867 0 0 Z " fill="#454545" transform="translate(372,127)"/>
<path d="M0 0 C3 0.25 3 0.25 5 2.25 C5.375 4.6875 5.375 4.6875 5 7.25 C3.3125 9.1875 3.3125 9.1875 1 10.25 C-1.39263407 9.58228817 -3.22097385 9.02902615 -5 7.25 C-5.1875 4.8125 -5.1875 4.8125 -5 2.25 C-3 0.25 -3 0.25 0 0 Z " fill="#5B5B5B" transform="translate(224,21.75)"/>
<path d="M0 0 C-0.875 4.875 -0.875 4.875 -2 6 C-3.52519276 5.91062197 -5.04681929 5.75462854 -6.5625 5.5625 C-7.80193359 5.40974609 -7.80193359 5.40974609 -9.06640625 5.25390625 C-9.70449219 5.17011719 -10.34257813 5.08632812 -11 5 C-11.33 3.68 -11.66 2.36 -12 1 C-10.56274129 0.83126522 -9.12518162 0.66509263 -7.6875 0.5 C-6.88699219 0.4071875 -6.08648437 0.314375 -5.26171875 0.21875 C-3 0 -3 0 0 0 Z " fill="#FCA200" transform="translate(44,95)"/>
<path d="M0 0 C-0.33 1.65 -0.66 3.3 -1 5 C-2.65 5 -4.3 5 -6 5 C-6.33 3.35 -6.66 1.7 -7 0 C-4.3333581 -1.33332095 -2.83319697 -0.67102033 0 0 Z " fill="#5B5B5B" transform="translate(377,121)"/>
<path d="M0 0 C2.97 0 5.94 0 9 0 C8.67 0.99 8.34 1.98 8 3 C6.02 3.33 4.04 3.66 2 4 C1.34 2.68 0.68 1.36 0 0 Z " fill="#FDB500" transform="translate(20,82)"/>
</svg>
