<svg width="110" height="31" viewBox="0 0 110 31" fill="none" xmlns="http://www.w3.org/2000/svg">
<g clip-path="url(#clip0_67_5344)">
<path d="M53.9537 24.5029H54.6288L58.1099 29.2944V24.5029H58.707V30.3135H58.1406L54.5492 25.3799V30.3135H53.9521V24.5029H53.9537Z" fill="#1D1D1B"/>
<path d="M60.1919 24.5029H64.042V25.0912H60.8134V27.0117H63.9639V27.5923H60.8134V29.7482H64.0742V30.3135H60.1934V24.5029H60.1919Z" fill="#1D1D1B"/>
<path d="M67.1619 25.0912H64.9774V24.5029H69.9665V25.0912H67.7819V30.3135H67.1604V25.0912H67.1619Z" fill="#1D1D1B"/>
<path d="M70.7212 24.5029H71.358L72.8904 29.3097L74.4534 24.5029H74.9877L76.543 29.3097L78.0831 24.5029H78.6801L76.8094 30.3532H76.2751L74.7029 25.5144L73.1399 30.3532H72.598L70.7196 24.5029H70.7212Z" fill="#1D1D1B"/>
<path d="M79.2389 27.4044C79.2389 25.3341 80.2998 24.4082 82.1613 24.4082C84.0228 24.4082 85.1006 25.3341 85.1006 27.4044C85.1006 29.4747 84.032 30.4082 82.1613 30.4082C80.2906 30.4082 79.2389 29.4823 79.2389 27.4044ZM84.479 27.412C84.479 25.8429 83.7488 24.9964 82.1613 24.9964C80.5738 24.9964 79.8589 25.8429 79.8589 27.412C79.8589 28.9812 80.5815 29.8352 82.1613 29.8352C83.7412 29.8352 84.479 28.9873 84.479 27.412Z" fill="#1D1D1B"/>
<path d="M88.7134 27.9453H86.9697V30.3135H86.365V24.5029H88.8787C90.2305 24.5029 90.8428 25.0438 90.8428 26.1974C90.8428 27.2012 90.3636 27.7894 89.3502 27.9223L90.7571 30.315H90.0973L88.7149 27.9468L88.7134 27.9453ZM88.8864 27.3799C89.7115 27.3799 90.2213 27.1294 90.2213 26.2111C90.2213 25.2928 89.7268 25.0744 88.8619 25.0744H86.9682V27.3799H88.8848H88.8864Z" fill="#1D1D1B"/>
<path d="M93.9321 27.2317L92.7686 28.5014V30.3135H92.1639V24.5029H92.7686V27.71L95.7155 24.5029H96.4304L94.3408 26.7856L96.7137 30.315H96.0141L93.9321 27.2333V27.2317Z" fill="#1D1D1B"/>
<path d="M97.2311 29.7252L97.5449 29.2547C98.2445 29.6932 98.9273 29.8429 99.6269 29.8429C100.829 29.8429 101.363 29.5052 101.363 28.7061C101.363 27.9071 100.671 27.765 99.6269 27.577C98.37 27.357 97.5204 27.1446 97.5204 25.9697C97.5204 24.7948 98.243 24.4082 99.6269 24.4082C100.539 24.4082 101.191 24.6129 101.654 24.9262L101.323 25.4273C100.907 25.1523 100.285 24.972 99.6254 24.972C98.5813 24.972 98.1328 25.2623 98.1328 25.9529C98.1328 26.6909 98.7375 26.8314 99.7754 27.0194C101.048 27.247 101.968 27.4349 101.968 28.6817C101.968 29.8352 101.23 30.3914 99.6422 30.3914C98.7619 30.3914 97.969 30.2111 97.2296 29.7252H97.2311Z" fill="#1D1D1B"/>
<path d="M108.056 0.486328C99.8703 0.486328 99.5228 4.14714 99.5228 9.30986V21.9867H101.453V9.30986C101.453 5.41834 101.299 2.29687 108.056 2.29687C108.78 2.29687 109.421 2.33507 110 2.40229V0.567306C109.404 0.515358 108.76 0.486328 108.056 0.486328Z" fill="#1D1D1B"/>
<path d="M12.5883 13.7403V0.90918H14.5569V13.7785C14.5569 17.4776 14.5187 20.599 21.3142 20.599C28.1097 20.599 27.9168 17.4791 27.9168 13.586V0.90918H29.8472V13.586C29.8472 18.7503 29.4997 22.4096 21.3142 22.4096C13.1286 22.4096 12.5883 18.7488 12.5883 13.7403Z" fill="#1D1D1B"/>
<path d="M50.3714 9.15554V21.9867H48.4028V9.11734C48.4028 5.41834 48.441 2.29687 41.6471 2.29687C34.8531 2.29687 35.0445 5.41834 35.0445 9.30986V21.9867H33.114V9.30986C33.114 4.14561 33.4615 0.486328 41.6471 0.486328C49.8326 0.486328 50.373 4.14714 50.373 9.15554H50.3714Z" fill="#1D1D1B"/>
<path d="M53.9536 0.947754H55.8427V21.9867H53.9536V0.947754Z" fill="#1D1D1B"/>
<path d="M59.3821 0.947754H69.25C74.1442 0.947754 76.3624 3.37556 76.3624 7.69031C76.3624 12.005 74.1717 14.6758 69.2225 14.6758H61.2712V21.9852H59.3806V0.947754H59.3821ZM69.2791 12.7843C72.6883 12.7843 74.383 11.1265 74.383 7.77587C74.383 4.42522 72.5551 2.83622 69.1949 2.83622H61.2727V12.7843H69.2791Z" fill="#1D1D1B"/>
<path d="M78.5622 11.3906C78.5622 5.18742 80.3396 0.408203 88.2924 0.408203C96.2452 0.408203 96.7856 5.91775 96.7473 11.7359H80.4544C80.4926 16.8605 81.7663 20.6756 88.4455 20.6756C91.9971 20.6756 93.6198 19.7115 95.3558 18.4403L96.4366 19.8658C94.5061 21.2913 92.2298 22.4082 88.4455 22.4082C80.1069 22.4082 78.5607 17.5908 78.5607 11.3876L78.5622 11.3906ZM80.4942 9.96359H94.8567C94.6638 5.76344 94.3929 2.18055 88.2541 2.18055C82.1154 2.18055 80.7269 5.37841 80.4942 9.96359Z" fill="#1D1D1B"/>
<path d="M0.734808 26.5517C8.92032 26.5517 9.26783 22.8908 9.26783 17.7266V0.90918H7.33741V17.7281C7.33741 21.6196 7.49203 24.7411 0.736339 24.7411C0.480685 24.7411 0.238809 24.735 0.00152588 24.7258V26.5425C0.238809 26.5486 0.483747 26.5517 0.736339 26.5517H0.734808Z" fill="#1D1D1B"/>
<path d="M105.68 22.078C104.945 22.078 104.347 21.4821 104.347 20.7488C104.347 20.0154 104.945 19.418 105.68 19.418C106.415 19.418 107.012 20.0154 107.012 20.7488C107.012 21.4821 106.415 22.078 105.68 22.078ZM105.68 19.5891C105.04 19.5891 104.52 20.1086 104.52 20.7472C104.52 21.3859 105.04 21.9054 105.68 21.9054C106.32 21.9054 106.839 21.3859 106.839 20.7472C106.839 20.1086 106.318 19.5891 105.68 19.5891Z" fill="#1D1D1B"/>
<path d="M105.766 20.9245H105.339V21.5127H105.135V19.9849H105.816C106.203 19.9849 106.353 20.1438 106.353 20.4448C106.353 20.6907 106.248 20.8619 105.985 20.9108L106.331 21.5127H106.109L105.767 20.9245H105.766ZM105.813 20.7335C106.023 20.7335 106.142 20.6739 106.142 20.4509C106.142 20.2278 106.026 20.1789 105.807 20.1789H105.339V20.7335H105.813Z" fill="#1D1D1B"/>
</g>
<defs>
<clipPath id="clip0_67_5344">
<rect width="110" height="30" fill="white" transform="translate(0 0.408203)"/>
</clipPath>
</defs>
</svg>
